<?xml version="1.0" standalone="no"?>
<!DOCTYPE svg PUBLIC "-//W3C//DTD SVG 1.1//EN" "http://www.w3.org/Graphics/SVG/1.1/DTD/svg11.dtd" >
<svg xmlns="http://www.w3.org/2000/svg">
<metadata>
<json>
{
	"fontFamily": "symbols",
	"majorVersion": 1,
	"minorVersion": 0,
	"version": "Version 1.0",
	"fontId": "symbols",
	"psName": "symbols",
	"subFamily": "Regular",
	"fullName": "symbols",
	"description": "Font generated by IcoMoon."
}
</json>
</metadata>
<defs>
<font id="symbols" horiz-adv-x="512">
<font-face units-per-em="512" ascent="480" descent="-32" />
<missing-glyph horiz-adv-x="512" />
<glyph unicode="&#x20;" d="" horiz-adv-x="256" />
<glyph unicode="&#xe000;" d="M425.536 89.984c-31.264-31.872-92.64-57.312-170.112-57.312-77.44 0-138.88 25.44-170.112 57.312-22.016 12.416-40.16 27.328-53.312 43.936 0.16-73.696 100.128-133.44 223.392-133.44s223.232 59.744 223.392 133.44c-13.12-16.608-31.264-31.52-53.248-43.936zM255.392 73.152c82.208 0 153.984 26.592 192.768 66.144 19.424 19.776 30.624 42.944 30.624 67.456 0 18.432-6.24 36.064-17.568 52.032-3.68 5.216-7.904 10.272-12.608 15.104-4.992 5.152-10.656 10.080-16.672 14.784-33.888 26.080-83.52 44.448-140.352 50.016v-60.384c51.296-9.312 88.672-37.824 88.672-71.552 0-41.184-55.904-74.656-124.864-74.656-68.992 0-124.864 33.504-124.864 74.656 0 38.464 48.384 70.048 110.72 74.272v-39.68c-14.496-3.36-24.8-11.744-24.8-21.696 0-12.928 17.376-23.296 38.976-23.296 21.504 0 38.976 10.432 38.976 23.296 0 5.248-2.912 10.048-7.712 13.888-4.384 3.552-10.272 6.24-17.12 7.808v109.952c3.808 3.136 6.4 8.832 6.4 15.424l-0.032 11.872h64.096c7.808 0 14.144 8.832 14.144 19.616 0 10.848-6.336 19.456-14.144 19.456l-64.96 0.032c-1.056 3.872-3.040 7.008-5.504 9.088v1.696c0 1.856-0.224 3.488-0.544 5.184-1.664 8.224-7.072 14.368-13.632 14.368-7.808 0-14.144-8.736-14.144-19.552v-1.664c-2.496-2.112-4.448-5.248-5.504-9.12h-64.992c-7.776 0-14.112-8.672-14.112-19.456 0-10.816 6.336-19.616 14.112-19.616h64.128v-11.904c0-6.624 2.624-12.288 6.4-15.424v-11.2c-3.136-0.064-6.208-0.256-9.312-0.448-3.456-0.192-6.88-0.448-10.304-0.768-51.232-4.64-96.768-19.712-130.4-41.408-10.208-6.592-19.296-13.856-27.104-21.632-2.272-2.24-4.416-4.48-6.432-6.816-2.432-2.656-4.704-5.44-6.784-8.288-3.424-4.576-6.4-9.344-8.928-14.208-6.528-12.48-10.016-25.856-10.016-39.744 0-24.512 11.2-47.68 30.624-67.456 38.752-39.584 110.592-66.176 192.768-66.176zM118.528 289.536c11.36 4.928 22.848 8.768 34.432 11.776 23.136 5.92 46.432 8.448 69.536 8.544-8.608-1.888-17.024-4.064-25.44-6.624-14.080-4.288-27.872-9.664-41.312-16.192-9.856-4.864-19.456-10.24-28.704-16.416-1.184 2.752-2.624 5.28-4.256 7.616-2.528 3.744-5.504 6.816-8.8 9.184 1.504 0.672 3.040 1.376 4.544 2.112zM94.688 277.6c0.384 0.032 0.704 0.032 1.088 0.032 1.44 0 2.88-0.192 4.224-0.512 4.576-1.024 8.736-3.744 12.128-7.744 1.984-2.304 3.712-4.992 5.088-8.032 2.336-5.024 3.776-10.944 4-17.344 0.608-19.392-10.304-35.776-24.352-36.576-0.352-0.096-0.736-0.096-1.12-0.096-11.712 0-21.664 11.072-24.544 26.176-0.448 2.4-0.768 4.96-0.832 7.52-0.608 19.424 10.272 35.84 24.32 36.576z" />
<glyph unicode="&#xe001;" d="M236.608 0.512c-0.928 1.952-1.568 4.032-1.984 6.176-0.32 1.728-0.512 3.456-0.512 5.216v0.96l-152.992-0.064c-7.584 0-13.728 6.112-13.728 13.632l-0.032 113.888 166.752-107.52v7.456l-0.032 7.328-182.976 117.984c-6.336 4.096-8.16 12.512-4.032 18.816l7.808 11.904 6.304 9.536 11.648 17.696 5.12 7.808 44.672 68.032 41.344-74.048 3.488-6.176 66.56-118.912v25.472l-52.352 93.44-3.424 6.176-3.456 6.176-51.392 91.776-2.784 4.896c-3.616 6.592-1.28 14.88 5.344 18.56l158.016 86.816c1.92 1.12 4 1.664 6.144 1.696 4.96 0.192 9.92-2.336 12.512-6.944l36.704-65.472h14.304l-40.128 71.488c-4.8 8.608-13.984 13.728-23.84 13.344-4.096-0.128-8.192-1.28-11.776-3.264l-157.984-86.912c-12.64-6.88-17.216-22.752-10.144-35.296l5.952-10.656-79.072-120.416c-3.808-5.792-5.12-12.768-3.68-19.52 1.408-6.784 5.44-12.608 11.328-16.352l10.624-6.848v-121.92c0-6.944 2.72-13.44 7.648-18.336 4.96-4.928 11.584-7.648 18.528-7.648l155.52 0.032zM131.36 48.32c0.384-0.512 0.704-0.864 1.024-0.96 0.288-0.16 0.992-0.192 2.112-0.192 0.896 0 1.344 0.224 1.344 0.672v15.616c0 0.544-0.128 0.896-0.416 1.056-0.256 0.128-1.024 0.224-2.208 0.224-0.8 0-1.28-0.032-1.44-0.128-0.128-0.064-0.352-0.288-0.576-0.576-1.024-1.152-2.464-1.824-4.352-2.048l-38.944-5.824c-0.992-0.16-2.016-0.288-3.008-0.48-2.656-0.32-4.352-0.608-5.184-0.896-0.736-0.384-1.152-0.928-1.152-1.76v-13.472c0-0.576 0.16-0.96 0.48-1.088 0.288-0.16 1.088-0.256 2.368-0.256 0.992 0 1.664 0.256 1.92 0.736 0.608 0.96 1.248 1.536 1.952 1.536 0.48 0 1.024-0.096 1.696-0.192l41.696-6.496c0.864-0.16 1.632-0.576 2.368-1.376 0.768-0.832 1.888-1.216 3.136-1.216 1.088 0 1.664 0.288 1.664 0.768v9.216c0 0.416-0.096 0.672-0.288 0.768-0.224 0.096-0.8 0.192-1.76 0.192-0.768 0-1.344-0.128-1.664-0.224-0.352-0.192-0.672-0.512-0.928-1.12-0.64-1.088-1.344-1.664-2.176-1.664-0.576 0-1.184 0.16-1.856 0.352-0.128 0.032-0.256 0.096-0.32 0.096l-3.296 0.352v8.8c3.072 0.576 4.96 0.8 5.76 0.8 0.864 0 1.504-0.384 2.048-1.216zM91.808 44.576l27.68 3.84v-7.808l-27.68 3.968zM182.304 58.208c-4.544 3.008-8.096 5.536-10.912 7.616-2.784 2.080-6.688 1.92-9.312-0.416-2.784-2.464-6.176-5.344-10.144-8.64-3.776-3.040-7.328-5.76-10.72-8.192-2.272-1.632-2.144-4.928 0.288-6.24 3.232-1.856 6.592-3.936 10.144-6.304 4.768-3.264 8.832-6.048 12.224-8.544 2.816-2.048 6.72-2.016 9.376 0.384 3.488 3.040 5.696 4.896 6.496 5.632 5.152 4.192 9.664 7.712 13.536 10.592 0.288 0.224 0.576 0.448 0.832 0.64 2.24 1.632 2.080 4.864-0.288 6.208-3.552 2.112-7.392 4.48-11.52 7.264zM118.432 168.48c0.672-0.416 0.992-1.088 0.992-2.112 0-0.64 0.064-1.088 0.256-1.344 0.16-0.256 0.704-0.672 1.696-1.28 0.736-0.512 1.248-0.576 1.504-0.192l8.576 13.056c0.32 0.48 0.384 0.864 0.224 1.152-0.096 0.288-0.672 0.704-1.696 1.376-0.64 0.416-1.088 0.672-1.248 0.672-0.224 0-0.512-0.064-0.864-0.192-1.408-0.384-3.008-0.16-4.768 0.576l-35.808 16.256c-0.928 0.416-1.856 0.832-2.784 1.28-2.4 1.12-3.968 1.76-4.832 1.888-0.768 0.192-1.472-0.096-1.92-0.768l-7.36-11.232c-0.352-0.512-0.416-0.896-0.224-1.216 0.16-0.288 0.8-0.768 1.888-1.472 0.832-0.576 1.472-0.672 1.984-0.48 1.024 0.576 1.856 0.608 2.464 0.224 0.384-0.224 0.832-0.608 1.312-0.992l31.392-28.064c0.64-0.544 1.024-1.312 1.216-2.336 0.256-1.12 0.864-2.016 1.984-2.784 0.928-0.576 1.504-0.672 1.792-0.224l5.12 7.776c0.192 0.32 0.256 0.608 0.128 0.768-0.128 0.192-0.576 0.576-1.376 1.056-0.64 0.48-1.152 0.64-1.472 0.704-0.352 0.064-0.832-0.096-1.408-0.416-1.088-0.608-1.984-0.672-2.688-0.224-0.48 0.448-0.96 0.8-1.44 1.344-0.064 0.096-0.16 0.192-0.224 0.224l-2.528 2.144 4.8 7.328c2.784-1.216 4.576-2.080 5.312-2.496zM105.216 166.304l-21.056 18.304 25.344-11.712-4.288-6.592zM134.944 127.808c1.472-0.896 3.008-1.504 4.672-1.888 1.728-0.384 3.744-0.576 6.048-0.48 1.44 0 4.992 0.288 10.624 0.768 7.616 0.672 13.088 0.96 16.416 0.832 0.992-0.064 2.048-0.192 3.072-0.352 2.24-0.224 3.68 2.176 2.464 4.064-0.576 0.768-1.056 1.664-1.536 2.528-2.080 3.744-4.32 9.088-6.848 15.936-1.92 5.312-3.68 9.216-5.344 11.648-1.728 2.496-3.584 4.384-5.76 5.696-2.432 1.568-5.12 1.984-8 1.28-2.88-0.672-5.12-2.304-6.752-4.832-1.6-2.592-2.080-5.44-1.344-8.576 0.32-1.44 0.928-2.912 1.952-4.384 0.672-0.96-0.192-2.208-1.376-2.112-1.824 0.192-3.456 0.096-4.832-0.288-3.104-0.768-5.44-2.432-7.040-5.024-1.632-2.56-2.112-5.344-1.408-8.192 0.704-2.752 2.368-4.992 4.992-6.624zM181.856 299.136c0.384-0.672 0.352-1.44-0.16-2.304-0.256-0.608-0.448-1.056-0.384-1.376 0.032-0.288 0.288-0.928 0.864-1.888 0.384-0.768 0.864-1.056 1.28-0.832l13.792 7.552c0.48 0.256 0.704 0.544 0.704 0.864s-0.224 0.992-0.864 2.016c-0.352 0.704-0.608 1.088-0.768 1.152-0.16 0.096-0.416 0.224-0.864 0.288-1.408 0.288-2.72 1.216-3.936 2.72l-21.248 27.52-2.688 3.424c-0.64 0.768-1.28 1.6-1.824 2.4-1.6 2.176-2.688 3.456-3.392 3.968-0.672 0.544-1.344 0.608-2.080 0.192l-11.808-6.56c-0.576-0.256-0.864-0.576-0.8-0.896 0-0.032 0.096-0.224 0.128-0.32 0.096-0.416 0.352-1.024 0.928-1.888 0.384-0.832 0.928-1.248 1.472-1.28 1.184 0 1.888-0.288 2.272-0.928 0.224-0.416 0.48-0.928 0.672-1.568l14.528-39.296c0.256-0.768 0.256-1.664-0.064-2.656-0.32-1.12-0.16-2.208 0.448-3.328 0.512-0.928 0.992-1.344 1.44-1.056l8.16 4.48c0.32 0.16 0.512 0.416 0.512 0.64s-0.256 0.768-0.736 1.536c-0.352 0.704-0.64 1.12-0.928 1.344s-0.768 0.32-1.44 0.32c-1.248-0.032-2.080 0.32-2.528 1.056-0.192 0.512-0.416 1.088-0.608 1.76 0 0.128-0.064 0.288-0.096 0.32l-1.152 3.040 7.712 4.256c1.888-2.4 3.040-3.936 3.456-4.672zM169.216 303.328l-9.984 25.952 16.8-22.112-6.816-3.84zM195.936 236.128c-0.512-0.448-0.608-1.216-0.16-1.856 0.384-0.544 1.12-0.704 1.824-0.352l26.56 14.624c0.672 0.32 0.96 1.12 0.672 1.76-0.288 0.672-1.024 0.96-1.728 0.768-4.512-1.472-6.784-1.696-7.904-1.6-2.4 0.16-4.544 0.96-6.432 2.208-1.28 0.96-3.328 3.392-5.248 6.304 1.12-0.608 2.016-0.96 2.688-1.216 1.696-0.48 3.424-0.672 5.152-0.544 1.792 0.128 3.36 0.544 4.704 1.28 2.464 1.344 4 3.328 4.736 6.016 0.768 2.72 0.448 5.344-0.96 7.872-1.344 2.368-3.296 4.032-5.824 4.832-2.496 0.8-4.832 0.64-6.944-0.544-0.704-0.448-1.312-0.864-1.792-1.376-0.32-0.288-1.152-1.344-2.464-3.2 0.352 2.944-0.032 5.28-1.088 7.168-1.312 2.304-3.264 3.84-5.888 4.608-2.688 0.672-5.312 0.384-7.84-1.024-2.496-1.408-4.16-3.392-4.896-5.984-0.704-2.624-0.448-5.12 0.928-7.552 0.48-0.8 1.056-1.568 1.728-2.176s1.92-1.376 3.616-2.4c-2.784-0.096-4.832-0.544-6.112-1.248-2.016-1.088-3.328-2.944-4.032-5.472-0.576-2.592-0.224-5.056 1.152-7.552 1.44-2.496 3.456-4.096 6.112-4.832 2.688-0.768 5.312-0.512 7.808 0.864 1.92 1.056 3.552 2.72 4.704 4.928 0.832 1.568 1.376 3.456 1.504 5.536 0.224-0.32 0.352-0.64 0.416-0.768 1.216-2.112 1.888-4.48 1.952-6.944 0.032-2.528-0.448-4.64-1.44-6.432-0.416-0.896-1.792-2.496-5.504-5.696zM440.704 37.824l4.288 29.728h-8.608l4.32-29.728zM289.472 309.28l-4.288-29.728h8.544l-4.256 29.728zM265.76 342.56c-7.584 0-13.76-6.112-13.76-13.632l0.032-32.064v-14.752l0.096-50.592v-12.384l0.096-125.952v-12.736l0.032-11.808v-47.552l0.032-3.328c0-1.76 0.384-3.36 0.896-4.864 1.024-2.496 2.656-4.672 4.864-6.176 2.208-1.632 4.96-2.592 7.968-2.592 0 0 0 0 0.032 0h24.16l19.712 0.064 154.048 0.128c7.552 0 13.728 6.112 13.728 13.664l-0.32 311.2c0 7.52-6.144 13.6-13.696 13.6l-0.096 0.032-197.824-0.256zM276.32 267.2c0.832 0.768 1.312 1.6 1.44 2.496l0.448 2.912 1.088 6.624 5.504 35.232c0.128 0.672 0.192 1.28 0.192 1.792 0 0.768-0.544 1.504-1.632 2.048-0.512 0.32-0.8 1.024-0.8 2.016 0 1.408 0.096 2.272 0.224 2.592 0.128 0.384 0.608 0.512 1.28 0.512l14.624 0.032c0.896 0 1.536-0.48 1.92-1.248 0.384-0.864 0.704-2.656 1.056-5.536 0.192-1.056 0.288-2.144 0.512-3.168l6.336-41.792c0.288-2.016 1.024-3.584 2.24-4.64 0.32-0.288 0.576-0.512 0.672-0.672s0.096-0.672 0.096-1.504c0-1.28-0.032-2.112-0.224-2.4-0.224-0.288-0.544-0.416-1.184-0.416h-17.024c-0.544 0-0.704 0.48-0.704 1.44v0c0 1.184 0.096 1.984 0.192 2.24 0.096 0.32 0.448 0.672 1.056 1.056 0.928 0.608 1.344 1.312 1.344 2.176 0 0.032 0 0.128 0 0.16-0.032 0.96-0.288 2.944-0.832 6.048l-8.48-0.032-1.152-0.032-0.416-3.456c0-0.032 0-0.192-0.096-0.32-0.16-0.736-0.288-1.44-0.288-1.984 0-0.096 0.032-0.224 0.032-0.32 0.128-0.768 0.672-1.408 1.696-1.984 0.672-0.32 1.088-0.704 1.216-1.056 0.16-0.32 0.288-0.928 0.288-1.76 0-1.024-0.128-1.664-0.192-1.888-0.096-0.192-0.384-0.288-0.864-0.288h-2.784l-7.296-0.032c-0.576 0-0.832 0.608-0.832 1.76s0.352 2.112 0.96 2.912c0.128 0.128 0.192 0.352 0.384 0.48zM288.768 220.384c1.408 0.864 2.528 2.144 3.392 3.84 0.224 0.352 0.288 0.768 0.48 1.12 0.416 1.12 0.736 2.24 0.8 3.392-0.544-0.704-1.152-1.312-1.824-1.76-1.216-0.928-2.624-1.376-4.224-1.376-1.696 0-3.136 0.64-4.384 1.856-1.184 1.12-1.76 2.496-1.76 4.064 0 0.096-0.032 0.192-0.032 0.224 0 1.44 0.288 2.624 0.928 3.744 0.832 1.568 2.176 3.104 4.064 4.64 1.92 1.504 3.328 2.816 4.32 3.84 1.248 1.568 2.304 2.976 2.944 4.192 0.608 1.216 1.088 2.624 1.504 4.224 0.448-2.016 1.216-3.84 2.208-5.376 1.056-1.632 2.912-3.584 5.472-5.888 2.656-2.4 4.32-4.192 4.992-5.44 0.672-1.312 1.088-2.528 1.088-3.84 0-0.128-0.096-0.224-0.096-0.384-0.064-1.6-0.608-2.976-1.76-4.096-1.216-1.12-2.688-1.728-4.416-1.728-1.472 0-2.848 0.48-4.032 1.376-0.672 0.512-1.376 1.248-1.984 2.080 0.16-1.472 0.416-2.752 0.672-3.744 0.128-0.352 0.256-0.672 0.352-1.024 0.768-1.568 1.952-2.848 3.488-3.872 0.768-0.48 1.92-0.928 3.552-1.312 0.704-0.192 1.44-0.352 2.368-0.512 0.544-0.128 0.928-0.576 0.864-1.152-0.032-0.544-0.512-0.96-1.056-0.96l-23.52-0.064c-0.608 0-1.024 0.48-1.056 0.96-0.096 0.64 0.288 1.024 0.864 1.184 0.896 0.192 1.728 0.416 2.368 0.608 2.048 0.448 3.008 0.896 3.424 1.184zM400.256 106.56h-13.024l-4.416-0.032h-64.064c-1.984 0-3.456 1.376-3.744 3.264-0.192 1.856 1.088 3.584 2.944 3.968 12.8 2.72 18.048 4.928 20.256 6.272 4.672 2.944 8.672 7.392 11.648 13.248 2.88 5.536 4.352 11.424 4.576 17.568-2.304-3.136-4.864-5.76-7.712-7.712-5.088-3.648-11.040-5.536-17.504-5.536-0.032 0-0.032 0-0.032 0-7.072 0-13.088 2.56-18.144 7.552-5.12 4.992-7.616 11.104-7.616 18.176 0 5.568 1.312 10.688 3.808 15.264 3.456 6.208 9.088 12.576 16.768 18.848 7.584 6.112 13.216 11.328 16.736 15.296 2.016 2.24 3.712 4.416 5.344 6.496 0.416 0.48 0.768 1.024 1.184 1.472 1.12 1.664 2.272 3.232 3.264 4.672 0.096 0.128 0.16 0.288 0.256 0.48 0.704 1.152 1.376 2.24 1.984 3.36 0.32 0.672 0.64 1.408 0.992 2.112 0.032 0.096 0.096 0.128 0.096 0.224 1.984 4.288 3.52 9.216 4.8 14.688h1.632c1.344-5.216 3.072-10.144 5.344-14.688 0.992-2.112 2.080-4.192 3.328-6.176 0.128-0.16 0.224-0.352 0.384-0.608 1.312-2.016 2.944-4.224 4.928-6.656 0.096-0.032 0.16-0.128 0.224-0.224 2.176-2.528 4.672-5.248 7.68-8.192 2.048-2.112 4.416-4.32 6.912-6.656 0.672-0.608 1.28-1.152 2.016-1.792 1.472-1.344 2.912-2.656 4.224-3.904 0.352-0.288 0.64-0.576 0.928-0.832 7.52-7.136 12.608-12.896 14.88-17.088 2.912-5.152 4.384-10.4 4.448-15.744 0-1.056-0.128-2.048-0.224-3.104-0.608-6.048-3.072-11.296-7.328-15.552-0.96-0.864-1.984-1.76-3.008-2.496-0.864-0.64-1.76-1.216-2.656-1.76-1.088-0.608-2.112-1.024-3.232-1.504-1.28-0.48-2.528-0.832-3.776-1.12-0.8-0.128-1.664-0.256-2.4-0.352-1.056-0.096-2.112-0.256-3.328-0.256v0c-0.16 0-0.352 0.064-0.512 0.064-2.144 0.096-4.288 0.416-6.272 0.896-3.456 0.928-6.752 2.4-9.792 4.704-3.104 2.272-5.984 5.472-8.672 9.152 0.8-8.128 2.208-15.264 3.936-18.72 1.408-3.008 3.36-5.664 5.76-8.128 1.472-1.568 3.168-3.040 4.96-4.32 0.544-0.32 0.896-0.672 1.376-1.024 0.192-0.128 0.48-0.256 0.672-0.352 0.512-0.352 1.088-0.672 1.728-0.928 0.864-0.416 1.792-0.768 2.752-1.184 0.416-0.16 0.864-0.288 1.312-0.416 0.672-0.256 1.408-0.544 2.208-0.736 1.216-0.384 2.56-0.736 4-1.088 0.704-0.192 1.44-0.352 2.208-0.544 1.76-0.416 3.552-0.8 5.632-1.184 1.92-0.32 3.168-2.048 3.008-3.968-0.16-1.728-1.76-3.2-3.68-3.2zM435.936 122.816c-0.672 1.504-1.984 2.848-3.456 3.84-1.088 0.704-3.072 1.344-5.952 1.856-0.544 0.096-0.896 0.64-0.864 1.152 0.096 0.576 0.512 0.96 1.024 0.96h23.488c0.608 0 1.056-0.384 1.088-0.896 0.064-0.576-0.288-1.056-0.832-1.152-3.648-0.768-5.184-1.44-5.856-1.824-1.376-0.8-2.4-2.144-3.392-3.808-0.672-1.44-1.12-2.944-1.184-4.544 0.544 0.704 1.088 1.312 1.76 1.824 1.28 0.864 2.656 1.344 4.256 1.344 1.76 0 3.136-0.672 4.448-1.856 1.152-1.216 1.792-2.688 1.792-4.384 0-1.408-0.352-2.624-0.928-3.744-0.832-1.504-2.176-3.040-4.096-4.576-1.952-1.6-3.328-2.848-4.288-3.84-1.312-1.6-2.336-2.976-2.976-4.16-0.64-1.248-1.088-2.688-1.472-4.288-0.544 2.016-1.248 3.776-2.272 5.376-0.96 1.568-2.848 3.552-5.44 5.92-2.688 2.336-4.256 4.16-5.024 5.376-0.64 1.248-0.96 2.528-0.96 3.84 0 1.792 0.576 3.264 1.76 4.48 1.216 1.184 2.72 1.792 4.448 1.792 1.504 0 2.816-0.416 4-1.312 0.672-0.576 1.408-1.312 2.016-2.112-0.256 2.048-0.672 3.808-1.088 4.736zM453.824 79.936c-0.832-0.8-1.376-1.632-1.44-2.496l-7.104-44.8c-0.128-0.672-0.192-1.28-0.192-1.792 0-0.768 0.576-1.472 1.696-2.112 0.512-0.288 0.736-0.896 0.736-1.984 0-1.44-0.096-2.24-0.256-2.624-0.16-0.352-0.512-0.48-1.184-0.48h-14.688c-0.928 0-1.536 0.416-1.856 1.248-0.384 0.8-0.704 2.656-1.152 5.472-0.16 1.12-0.352 2.176-0.448 3.232l-6.336 41.824c-0.352 2.016-1.056 3.584-2.272 4.672-0.352 0.288-0.544 0.512-0.608 0.672-0.128 0.16-0.224 0.672-0.224 1.472 0 1.312 0.128 2.112 0.288 2.4 0.192 0.288 0.544 0.416 1.152 0.416l17.056 0.064c0.512 0 0.704-0.544 0.704-1.504 0-1.184-0.064-1.984-0.16-2.24-0.192-0.32-0.544-0.672-1.152-1.056-0.832-0.608-1.248-1.28-1.248-2.080 0-0.928 0.192-3.008 0.768-6.208h9.632l0.384 3.488c0 0.032 0.032 0.16 0.096 0.32 0.224 0.704 0.352 1.376 0.352 1.984 0 0.928-0.64 1.728-1.824 2.304-0.608 0.384-1.088 0.672-1.152 1.056-0.256 0.32-0.256 0.896-0.256 1.76 0 1.056 0 1.664 0.128 1.856 0.16 0.224 0.416 0.384 0.864 0.384h10.112c0.576 0 0.832-0.576 0.832-1.76 0.128-1.504-0.288-2.624-1.248-3.488z" />
<glyph unicode="&#xe002;" d="M125.728 163.648c-4.576-1.856-7.552-5.088-7.552-8.832 0-3.712 2.976-6.976 7.552-8.8 4.512 1.856 7.488 5.088 7.488 8.8s-3.008 6.976-7.488 8.832v0zM230.208 71.904c-4.544-1.792-7.52-5.056-7.52-8.8 0-3.712 3.008-7.008 7.52-8.8 4.544 1.824 7.552 5.088 7.552 8.8 0.032 3.744-3.008 7.040-7.552 8.8v0zM282.432 71.904c-4.48-1.792-7.488-5.056-7.488-8.8 0-3.712 3.008-7.008 7.488-8.8 4.576 1.824 7.552 5.088 7.552 8.8 0 3.744-2.976 7.040-7.552 8.8v0zM334.784 117.792c-4.544-1.856-7.552-5.088-7.552-8.864 0-3.68 3.040-7.008 7.552-8.768 4.544 1.792 7.552 5.088 7.552 8.768-0.032 3.776-3.072 7.008-7.552 8.864v0zM177.888 117.792c-4.48-1.856-7.456-5.088-7.456-8.864 0-3.68 2.976-7.008 7.456-8.768 4.576 1.792 7.552 5.088 7.552 8.8 0 3.744-2.976 6.976-7.552 8.832v0zM308.608 94.848c-4.544-1.792-7.552-5.056-7.552-8.8s3.040-7.040 7.552-8.8c4.512 1.792 7.52 5.056 7.52 8.8s-3.008 7.008-7.52 8.8v0zM204.096 94.848c-4.512-1.792-7.52-5.056-7.52-8.8s3.040-7.040 7.52-8.8c4.512 1.792 7.552 5.056 7.552 8.8s-3.072 7.008-7.552 8.8v0zM256.32 94.848c-4.512-1.792-7.52-5.056-7.52-8.8s3.008-7.040 7.52-8.8c4.544 1.792 7.584 5.056 7.584 8.8s-3.040 7.008-7.584 8.8v0zM230.208 117.792c-4.544-1.856-7.52-5.088-7.52-8.864 0-3.68 3.008-7.008 7.52-8.768 4.544 1.792 7.552 5.088 7.552 8.768 0.032 3.776-3.008 7.008-7.552 8.864v0zM282.432 117.792c-4.48-1.856-7.488-5.088-7.488-8.864 0-3.68 3.008-7.008 7.488-8.768 4.576 1.792 7.552 5.088 7.552 8.768 0 3.776-2.976 7.008-7.552 8.864v0zM204.096 140.736c-4.512-1.856-7.52-5.088-7.52-8.832 0-3.712 3.040-7.008 7.52-8.8 4.512 1.824 7.552 5.088 7.552 8.8-0.032 3.744-3.072 6.976-7.552 8.832v0zM256.32 140.736c-4.512-1.856-7.52-5.088-7.52-8.832 0-3.712 3.008-7.008 7.52-8.8 4.544 1.824 7.584 5.088 7.584 8.8 0 3.744-3.040 6.976-7.584 8.832v0zM308.608 140.736c-4.544-1.856-7.552-5.088-7.552-8.832 0-3.712 3.040-7.008 7.552-8.8 4.512 1.824 7.52 5.088 7.52 8.8 0.032 3.744-3.008 6.976-7.52 8.832v0zM334.784 163.648c-4.544-1.856-7.552-5.088-7.552-8.832 0-3.712 3.040-6.976 7.552-8.8 4.544 1.856 7.552 5.088 7.552 8.8-0.032 3.712-3.072 6.976-7.552 8.832v0zM282.432 163.648c-4.48-1.856-7.488-5.088-7.488-8.832 0-3.712 3.008-6.976 7.488-8.8 4.576 1.856 7.552 5.088 7.552 8.8s-2.976 6.976-7.552 8.832v0zM230.208 163.648c-4.544-1.856-7.52-5.088-7.52-8.832 0-3.712 3.008-6.976 7.52-8.8 4.544 1.856 7.552 5.088 7.552 8.8 0.032 3.712-3.008 6.976-7.552 8.832v0zM177.888 163.648c-4.48-1.856-7.456-5.088-7.456-8.832 0-3.712 2.976-6.976 7.456-8.8 4.576 1.792 7.552 5.056 7.552 8.768 0 3.744-2.976 7.008-7.552 8.864v0zM256.32 48.992c-4.512-1.792-7.52-5.088-7.52-8.832 0-3.712 3.008-7.040 7.52-8.768 4.544 1.76 7.584 5.056 7.584 8.768 0 3.744-3.040 7.072-7.584 8.832v0zM151.776 140.736c-4.48-1.856-7.52-5.088-7.52-8.832 0-3.712 3.040-7.008 7.52-8.8 4.544 1.824 7.552 5.088 7.552 8.8 0 3.744-3.008 6.976-7.552 8.832v0zM360.896 140.736c-4.512-1.856-7.52-5.088-7.52-8.832 0-3.712 3.040-7.008 7.52-8.8 4.512 1.824 7.52 5.088 7.52 8.8-0.032 3.744-3.008 6.976-7.52 8.832v0zM387.040 163.648c-4.544-1.856-7.552-5.088-7.552-8.832 0-3.712 3.040-6.976 7.552-8.8 4.512 1.856 7.52 5.088 7.52 8.8 0.032 3.712-3.008 6.976-7.52 8.832v0zM314.24 27.296c-31.968-36.384-83.808-36.384-115.776 0l-127.072 144.8c43.808 6.112 80.576 20 110.112 47.552 20.32-19.136 44-30.24 74.816-40.96 30.912 10.72 54.56 21.856 74.912 40.96 29.44-27.52 66.272-41.44 110.016-47.552l-127.008-144.8zM227.936 432.416c0 8.608 10.624 15.616 23.712 15.616h9.408c13.12 0 23.68-7.008 23.68-15.616v-69.088c110.528-9.216 196-71.232 196-146.368 0-11.456-2.016-22.528-5.664-33.184-64.736 1.472-120.416 28.064-143.968 67.744-14.272-24.064-39.936-43.616-74.784-55.712-34.784 12.096-60.448 31.648-74.752 55.68-23.552-39.616-79.232-66.272-143.904-67.744-3.712 10.656-5.664 21.76-5.664 33.184 0 75.2 85.408 137.184 195.936 146.4v69.088z" />
<glyph unicode="&#xe003;" d="M472.064 375.296c-14.016 16.544-37.504 9.408-45.92 6.080-1.696-0.672-3.776-0.736-5.376 0.256l-21.152 13.344c-1.408 0.928-3.264 1.504-4.928 1.632 6.016 13.984 11.52 29.536 16 46.88 0.672 2.624-1.952 4.992-4.928 4.512-6.048-0.896-15.328-3.168-21.184-8.224-2.592-2.24-3.552-5.504-4.128-8.704-3.456-23.552-9.024-43.616-14.944-60.16-4.352 1.632-9.28 2.4-14.112 2.080l-70.464-5.6c-72.352 7.392-153.248-26.048-204.032-90.752-50.752-64.832-57.088-142.688-22.784-198.56l19.616-59.2c3.776-11.328 16.288-18.72 29.856-17.664l70.4 5.568c72.32-7.488 153.248 26.016 204.032 90.784 50.784 64.8 57.152 142.528 22.816 198.528l-19.648 59.136c-0.8 2.4-2.048 4.704-3.68 6.752 4.672 7.968 9.28 16.896 13.92 26.752 0.352-0.16 0.832-0.256 1.28-0.384 7.424-1.312 19.68-4.864 26.368-14.784 0.864-1.312 0.544-2.816-0.448-4.128-5.28-7.008-21.216-31.2-9.568-53.248 12.864-24.512 32.672-17.696 47.36-34.464 0.896-1.152 2.848-0.64 2.848 0.8-0.192 8.096 0.352 23.776 6.176 33.728 6.912 11.808 23.808 38.656 6.624 59.040z" />
<glyph unicode="&#xe004;" d="M386.56 180.416c-19.104 0-38.112-6.304-50.912-11.808-9.92-4.192-16.256-7.936-16.256-7.936s-9.984 2.624-23.936 4.128c-5.504 0.576-11.616 0.992-18.048 0.992-6.656 0-13.632-0.448-20.384-1.6-2.944-0.544-5.984-1.152-8.928-1.984-2.752-0.768-5.472-1.664-8.064-2.72-22.080-9.088-37.984-29.856-29.248-73.92 2.048-10.464 6.144-20.192 11.776-29.152 1.376-2.176 2.784-4.288 4.384-6.4 1.472-2.048 3.072-4.064 4.768-6.080 22.528-25.856 59.584-42.112 99.968-42.112 6.496 0 13.088 0.448 19.584 1.312 66.88 8.768 112.32 59.84 101.568 114.080-9.888 49.664-38.176 63.2-66.272 63.2zM478.24 345.664l-10.272 28.512c-2.24 6.208-10.72 9.44-18.048 6.784l-33.28-11.904c-12.544 16.544-40.288 40.864-79.744 57.728-59.392 25.408-123.84 22.944-128.16 16.768-4.352-6.144 27.36-49.696 86.72-75.040 15.872-6.784 31.872-11.616 47.136-15.040-88.928-28.032-147.040-99.488-181.792-159.584-1.216-2.144-2.4-4.256-3.584-6.336-1.184-2.208-2.4-4.32-3.52-6.464-8.48 3.52-27.84 10.4-48.736 10.4-27.744 0-58.4-12.064-70.688-60.064-12.256-47.968 25.952-94.080 85.344-103.168 6.88-0.992 13.664-1.472 20.352-1.472 21.792 0 42.688 5.28 60.352 14.496-8.448 12.32-14.464 25.952-17.312 40.64-7.040 35.552-0.672 63.072 19.072 81.888 4.128 3.936 8.832 7.392 13.984 10.432-6.24 2.144-12.736 3.616-19.040 4.48 1.248 2.176 2.528 4.384 3.84 6.592 1.312 2.176 2.624 4.352 4 6.528 25.056 40.384 60.832 83.84 109.12 111.744-1.696-2.336-3.232-4.704-4.672-7.168-20.096-33.536-22.4-72.928-17.856-108.32 8.896-0.608 16.832-1.76 23.040-2.784 4.64 2.144 10.336 4.672 16.896 7.104-3.904 30.176-2.016 62.88 14.080 89.728 13.632 22.56 35.488 38.304 66.752 47.776l55.168 3.2c7.808 0.384 13.088 6.528 10.848 12.544z" />
<glyph unicode="&#xe005;" d="M256 455.552l75.232-152.448 168.224-24.448-121.728-118.656 28.736-167.552-150.464 79.104-150.464-79.104 28.704 167.552-121.696 118.656 168.192 24.448z" />
<glyph unicode="&#xe006;" d="M454.112 444.288c-13.088 3.456-26.528 1.664-39.456-3.52 0.8 12.544 1.344 25.504 1.344 39.232h-320c0-13.696 0.512-26.688 1.344-39.232-12.928 5.184-26.368 6.976-39.456 3.52-42.752-11.264-64.576-68.864-48.832-128.672 15.776-59.84 63.2-99.168 105.92-87.904 14.912 3.936 27.072 13.76 36.192 27.104 34.656-60.384 72.832-93.216 72.832-128.16 0-64-64-97.376-64-97.376l-32-61.28h256l-32 61.504c0 0-64 33.376-64 97.6 0 35.072 38.144 67.52 72.8 127.744 9.12-13.344 21.28-23.168 36.192-27.104 42.752-11.264 90.112 28.064 105.952 87.904 15.744 59.776-6.080 117.376-48.832 128.64zM106.816 258.656c-25.632-6.752-55.52 22.368-66.816 65.12-11.296 42.72 0.384 82.816 26.016 89.6 11.648 3.040 24.064-1.536 35.296-11.168 6.464-45.408 18.336-82.048 32.192-112.704-4.768-15.968-14.016-27.52-26.688-30.848zM472 323.776c-11.328-42.752-41.184-71.872-66.816-65.12-12.672 3.328-21.952 14.88-26.688 30.816 13.888 30.624 25.76 67.296 32.192 112.768 11.264 9.6 23.616 14.176 35.296 11.136 25.632-6.784 37.28-46.88 26.016-89.6z" />
<glyph unicode="&#xe007;" d="M350.528 468.576c0 0-112.16-12.224-61.728-79.872 46.752-62.656 140.352-88.96 157.216-198.336 24.736-159.744-189.056-222.368-189.056-222.368s58.752 38.432 58.752 124.384c0 26.848-10.624 59.328-25.728 93.376 0-47.712-27.584-75.008-64.896-87.616 82.144 70.208-21.376 208.192-31.808 289.344-17.696 137.408 157.248 81.088 157.248 81.088zM224-32c0 0-69.344 23.936-69.344 99.872 0 76 55.84 102.304 55.84 148.064 0 45.792-88.896 104.064-88.896 104.064s36.256-42.304 24.16-95.712c-11.488-50.816-81.76-77.664-81.76-148.416 0-92.96 160-107.872 160-107.872z" />
<glyph unicode="&#xe008;" d="M508.8 163.328l-8.256 30.912-90.976-24.352-121.568 70.144v143.36l66.56 66.56-22.624 22.656-43.936-43.936v51.328h-64v-50.976l-43.552 43.552-22.624-22.624 66.176-66.208v-143.712l-121.6-70.144-90.912 24.352-8.288-30.912 60-16.096-44.448-25.632 32-55.424 44.128 25.504-15.936-59.488 30.912-8.256 24.224 90.368 121.92 70.304 121.92-70.336 24.256-90.336 30.912 8.256-15.936 59.488 44.192-25.504 32 55.424-44.544 25.664 60 16.064zM256.8 224l-0.8-1.408-0.8 1.408h1.6zM448.8 300.736l44.48 25.664-32 55.424-44.128-25.472 15.872 59.488-30.88 8.288-24.224-90.368-121.92-70.368-121.888 70.368-24.224 90.368-30.912-8.288 15.936-59.456-44.16 25.472-32-55.424 44.48-25.664-60.032-16.096 8.288-30.88 90.944 24.352 121.568-70.144v-143.712l-66.176-66.208 22.624-22.624 43.552 43.52v-50.976h64v51.36l43.936-43.936 22.624 22.624-66.56 66.592v143.36l121.568 70.112 90.976-24.352 8.256 30.912-60 16.064zM256.8 224h-1.6l0.8 1.408 0.8-1.408z" />
<glyph unicode="&#xe009;" d="M510.592 194.432l-47.68 48.512 36.608 57.376-63.328 24.896 10.112 67.296-68.064-3.040-18.080 65.6-60.864-30.4-43.296 52.544-43.264-52.544-60.864 30.4-18.144-65.6-67.968 3.040 10.112-67.296-63.328-24.896 36.608-57.376-47.744-48.512 56.768-37.504-23.904-63.744 67.136-11.2 4.096-67.872 65.888 17.056 31.36-60.384 53.248 42.4 53.216-42.368 31.36 60.416 65.888-17.056 4.128 67.872 67.136 11.232-23.872 63.712 56.736 37.44zM226.368 377.376c0.928 1.504 2.528 2.752 4.896 3.776 2.336 0.96 5.504 1.696 9.536 2.176 4 0.448 9.024 0.672 15.072 0.672 6.016 0 11.040-0.288 14.976-0.8 3.936-0.544 7.072-1.312 9.408-2.304 2.304-0.992 4-2.208 4.992-3.648 0.96-1.44 1.44-3.136 1.44-5.12l-5.856-207.584c-0.16-1.504-0.64-2.944-1.344-4.16-0.768-1.152-2.080-2.208-3.968-3.104-1.952-0.768-4.48-1.44-7.712-1.984-3.264-0.416-7.264-0.672-11.936-0.672-4.832 0-8.864 0.256-12.032 0.672-3.2 0.544-5.696 1.152-7.616 1.984-1.888 0.832-3.2 1.952-3.968 3.104-0.736 1.216-1.184 2.656-1.344 4.16l-5.888 207.584c0 1.984 0.416 3.712 1.344 5.248zM286.528 80.672c-0.992-4.032-2.688-7.328-5.248-9.76-2.496-2.464-5.792-4.192-9.856-5.312-4.064-1.056-9.216-1.6-15.424-1.6s-11.392 0.608-15.552 1.696c-4.16 1.056-7.456 2.816-9.888 5.248s-4.128 5.76-5.12 9.792c-0.96 4-1.44 9.024-1.44 14.944 0 6.016 0.48 11.2 1.472 15.328s2.688 7.488 5.12 9.984c2.432 2.56 5.728 4.352 9.888 5.472 4.128 0.992 9.312 1.536 15.52 1.536s11.36-0.544 15.424-1.568c4.064-1.12 7.328-2.944 9.856-5.504 2.496-2.432 4.256-5.856 5.248-9.952 0.992-4.128 1.472-9.248 1.472-15.296 0-5.92-0.48-10.944-1.472-15.008z" />
<glyph unicode="&#xe00a;" d="M256 383.2v32.8h64c0 0 0 64-32 64h-96c-32 0-32-64-32-64h64v-32.8c-107.36-8.192-192-97.76-192-207.232 0-114.784 93.152-207.968 208-207.968 114.88 0 208 93.184 208 207.968 0 109.472-84.64 199.040-192 207.232zM232 319.2v-31.2h4.448l-12.096-108.928c-0.224-1.024-0.608-1.952-0.608-3.008 0-8.8 7.136-15.936 15.936-15.936 8.768 0 15.904 7.104 15.936 15.872h0.384l-12.448 112h4.448v31.2c33.632-1.888 64.032-15.168 87.616-36.288l-22.080-22.048 11.328-11.328 22.080 22.048c21.088-23.584 34.368-53.952 36.256-87.584h-31.2v-16h31.2c-1.888-33.664-15.168-64.032-36.256-87.584l-22.080 22.048-11.328-11.328 22.080-22.048c-23.584-21.12-53.984-34.4-87.616-36.288v31.2h-16v-31.2c-33.664 1.888-64.032 15.168-87.616 36.256l22.080 22.080-11.328 11.328-22.080-22.080c-21.12 23.584-34.368 53.984-36.256 87.616h31.2v16h-31.2c1.888 33.664 15.168 64.032 36.256 87.616l22.080-22.080 11.328 11.328-22.080 22.080c23.584 21.088 53.952 34.368 87.616 36.256z" />
<glyph unicode="&#xe00b;" d="M0 448h512v-96.096h-512zM0 256.256h512v-96.096h-512zM0 64.128h512v-96.128h-512z" />
<glyph unicode="&#xe00c;" d="M0 448h192v-192h-192zM0 160.128h192v-192h-192zM288 448h192v-192h-192zM288 159.872h192v-192h-192z" />
<glyph unicode="&#xe00d;" d="M512 256.448h-389.504l81.888 81.888-45.248 45.248-159.136-159.136 0.448-0.448-0.448-0.448 159.136-159.168 45.248 45.216-82.816 82.848h390.432z" />
<glyph unicode="&#xe00e;" d="M512 224.448l-159.136 159.136-45.248-45.248 81.888-81.888h-389.504v-64h390.464l-82.848-82.848 45.248-45.216 159.136 159.168-0.448 0.448z" />
<glyph unicode="&#xe00f;" d="M415.584 320.864l-159.136 159.136-0.448-0.448-0.448 0.448-159.168-159.136 45.248-45.248 81.92 81.92v-389.536h63.968v390.432l82.816-82.816z" />
<glyph unicode="&#xe010;" d="M415.584 127.136l-45.248 45.248-82.816-82.848v390.464h-63.968v-389.504l-81.92 81.888-45.248-45.248 159.168-159.136 0.448 0.448 0.448-0.448z" />
<glyph unicode="&#xe011;" d="M480 256h-288.128v64l-160-96 160-96v64h288.128z" />
<glyph unicode="&#xe012;" d="M32 256h288.128v64l160-96-160-96v64h-288.128z" />
<glyph unicode="&#xe013;" d="M287.968-0.064v288.128h64l-96.032 160-96-160h64v-288.128z" />
<glyph unicode="&#xe014;" d="M223.936 448.064v-288.128h-64l96-160 96.032 160h-64v288.128z" />
<glyph unicode="&#xe015;" d="M256 480c-141.376 0-256-114.624-256-256 0-141.344 114.624-256 256-256 141.344 0 256 114.624 256 256s-114.624 256-256 256zM318.592 61.44c-16.512-6.56-29.664-11.616-39.488-15.072-9.824-3.424-21.248-5.184-34.24-5.184-20 0-35.552 4.864-46.624 14.688-11.072 9.76-16.64 22.112-16.64 37.12 0 5.888 0.416 11.808 1.248 17.952 0.832 6.048 2.176 12.928 4 20.64l20.64 73.088c1.856 6.976 3.392 13.6 4.64 19.872 1.248 6.24 1.888 11.968 1.888 17.152 0 9.344-1.92 15.84-5.728 19.52-3.872 3.648-11.168 5.472-21.984 5.472-5.344 0-10.784-0.864-16.352-2.592-5.6-1.696-10.368-3.36-14.368-4.896l5.472 22.752c13.472 5.568 26.368 10.336 38.656 14.304 12.32 3.968 23.968 5.952 34.944 5.952 19.776 0 35.040-4.8 45.792-14.4s16.096-22.080 16.096-37.408c0-3.168-0.384-8.736-1.12-16.768s-2.112-15.36-4.128-22.016l-20.576-72.864c-1.664-5.824-3.2-12.512-4.512-20s-2.016-13.184-2.016-16.992c0-9.696 2.176-16.32 6.528-19.808s11.84-5.248 22.56-5.248c5.024 0 10.688 0.928 17.024 2.752s10.944 3.36 13.792 4.736l-5.504-22.752zM315.2 356.608c-9.632-8.928-21.184-13.408-34.72-13.408s-25.152 4.48-34.848 13.408-14.528 19.776-14.528 32.48 4.832 23.552 14.528 32.608c9.696 8.992 21.28 13.504 34.848 13.504 13.536 0 25.088-4.512 34.72-13.536s14.4-19.904 14.4-32.608-4.8-23.52-14.4-32.448z" />
<glyph unicode="&#xe016;" d="M256 480c-141.376 0-256-114.624-256-256s114.624-256 256-256c141.376 0 256 114.624 256 256-0.032 141.376-114.656 256-256 256zM283.008 37.184c-7.648-6.848-16.512-10.24-26.528-10.24-10.4 0-19.424 3.36-27.168 10.112s-11.616 16.224-11.616 28.416c0 10.784 3.744 19.84 11.232 27.232 7.488 7.36 16.672 11.040 27.552 11.040 10.72 0 19.744-3.648 27.040-11.040 7.328-7.36 10.944-16.448 10.944-27.232 0-11.968-3.808-21.44-11.456-28.288zM378.848 274.528c-5.888-10.912-12.864-20.384-20.928-28.32-8.064-7.968-22.624-21.344-43.52-40.128-5.92-5.248-10.656-9.92-14.176-13.92-3.584-4-6.208-7.648-7.872-11.008-1.76-3.296-3.104-6.656-4.032-9.952-0.96-3.328-2.4-9.184-4.288-17.536-3.232-17.792-13.344-26.624-30.368-26.624-8.832 0-16.288 2.88-22.336 8.672s-9.056 14.4-9.056 25.888c0 14.304 2.208 26.752 6.656 37.248s10.368 19.712 17.728 27.648 17.312 17.312 29.792 28.224c10.944 9.568 18.848 16.768 23.712 21.632 4.896 4.864 8.992 10.272 12.384 16.256 3.328 5.984 4.992 12.448 4.992 19.456 0 13.664-5.12 25.184-15.264 34.56-10.112 9.376-23.264 14.080-39.296 14.080-18.784 0-32.608-4.736-41.472-14.144-8.832-9.408-16.32-23.296-22.464-41.632-5.824-19.488-16.832-29.184-33.024-29.184-9.568 0-17.632 3.392-24.192 10.176-6.592 6.784-9.856 14.144-9.856 22.080 0 16.224 5.216 32.64 15.616 49.28s25.6 30.432 45.568 41.344 43.264 16.384 69.856 16.384c24.736 0 46.528-4.576 65.472-13.728 18.88-9.12 33.44-21.568 43.744-37.312 10.272-15.712 15.424-32.8 15.424-51.264 0-14.496-2.944-27.264-8.8-38.176z" />
<glyph unicode="&#xe017;" d="M383.968 416h-255.968c-35.328 0-64-28.672-64-64v-256c0-35.328 28.672-64 64-64h256c35.328 0 64 28.672 64 64l-0.032 256c0 35.328-28.672 64-64 64zM369.088 156.16l-45.248-45.248-67.84 67.872-67.872-67.872-45.28 45.248 67.872 67.84-67.872 67.872 45.28 45.28 67.872-67.872 67.872 67.872 45.248-45.28-67.904-67.872 67.872-67.84z" />
<glyph unicode="&#xe018;" d="M479.2 240.8v-31.2q0-5.6-5.6-10.4t-12.8-4.8h-410.4q-7.2 0-12.8 4.8t-5.6 10.4v31.2q0 5.6 5.6 10.4t12.8 4.8h410.4q7.2 0 12.8-4.8t5.6-10.4zM479.2 112.8v-31.2q0-5.6-5.6-10.4t-12.8-4.8h-410.4q-7.2 0-12.8 4.8t-5.6 10.4v31.2q0 5.6 5.6 10.4t12.8 4.8h410.4q7.2 0 12.8-4.8t5.6-10.4zM479.2 368.8v-31.2q0-5.6-5.6-10.4t-12.8-4.8h-410.4q-7.2 0-12.8 4.8t-5.6 10.4v31.2q0 5.6 5.6 10.4t12.8 4.8h410.4q7.2 0 12.8-4.8t5.6-10.4z" />
<glyph unicode="&#xe019;" d="M383.968 416h-255.968c-35.328 0-64-28.672-64-64v-256c0-35.328 28.672-64 64-64h256c35.328 0 64 28.672 64 64l-0.032 256c0 35.328-28.672 64-64 64zM383.968 192.032h-255.968v63.968h256l-0.032-63.968z" />
<glyph unicode="&#xe01a;" d="M383.968 416h-255.968c-35.328 0-64-28.672-64-64v-256c0-35.328 28.672-64 64-64h256c35.328 0 64 28.672 64 64l-0.032 256c0 35.328-28.672 64-64 64zM383.968 192.032h-96v-96h-63.968v96h-96v63.968h96v96h64v-96h96l-0.032-63.968z" />
<glyph unicode="&#xe01b;" d="M442.624 480h-373.248c-20.64 0-37.376-14.336-37.376-32v-448c0-17.696 16.736-32 37.376-32h373.248c20.672 0 37.376 14.304 37.376 32v448c0 17.664-16.704 32-37.376 32zM256-20c-11.072 0-20 8.928-20 20s8.928 20 20 20 20-8.928 20-20-8.928-20-20-20zM416 32h-320v384h320v-384z" />
<glyph unicode="&#xe01c;" d="M480 448h-448c-17.664 0-32-14.336-32-32v-320c0-17.696 14.336-32 32-32h448c17.696 0 32 14.304 32 32v320c0 17.664-14.304 32-32 32zM480 160h-448v256h448v-256zM224 64c-32-32-32-32-32-32s-32-32 0-32 96 0 128 0 0 32 0 32 0 0-32 32c-22.624 22.624-41.376 22.624-64 0z" />
<glyph unicode="&#xe01d;" d="M384.672 480h-256.672c-17.664 0-32-14.336-32-32v-448c0-17.696 14.336-32 32-32h256.672c17.696 0 32 14.304 32 32v448c0 17.664-14.336 32-32 32zM236 460h72c6.624 0 12-5.376 12-12s-5.376-12-12-12h-72c-6.624 0-12 5.376-12 12s5.376 12 12 12zM204 460c6.624 0 12-5.376 12-12s-5.376-12-12-12-12 5.376-12 12 5.376 12 12 12zM256-16c-17.696 0-32 14.304-32 32s14.304 32 32 32 32-14.304 32-32-14.304-32-32-32zM384 64h-256v352h256v-352z" />
<glyph unicode="&#xe01e;" d="M192 160l64 32 224 224-32 32-224-224zM144.8 46.4q-12 24.8-26.8 39.6t-39.6 26.8l49.6 136 64 39.2 192 192h-96l-192-192-96-320 320 96 192 192v96l-192-192-39.2-64z" />
<glyph unicode="&#xe01f;" d="M464 480h-144q-20 0-44.4-10t-38-24.4l-223.2-223.2q-14.4-13.6-14.4-33.6t14.4-34.4l172-172q14.4-14.4 34.4-14.4t33.6 14.4l223.2 223.2q14.4 13.6 24.4 38t10 44.4v144q0 20-14 34t-34 14zM400 320q-20 0-34 14t-14 34 14 34 34 14 34-14 14-34-14-34-34-14z" />
<glyph unicode="&#xe020;" d="M160 448h-128v-128h128v128zM192 480v-192h-192v192h192zM64 416h64v-64h-64v64zM480 448h-128v-128h128v128zM512 480v-192h-192v192h192zM384 416h64v-64h-64v64zM160 128h-128v-128h128v128zM192 160v-192h-192v192h192zM64 96h64v-64h-64v64zM224 480h32v-32h-32v32zM256 448h32v-32h-32v32zM224 416h32v-32h-32v32zM256 384h32v-32h-32v32zM224 352h32v-32h-32v32zM256 320h32v-32h-32v32zM224 288h32v-32h-32v32zM224 224h32v-32h-32v32zM256 192h32v-32h-32v32zM224 160h32v-32h-32v32zM256 128h32v-32h-32v32zM224 96h32v-32h-32v32zM256 64h32v-32h-32v32zM224 32h32v-32h-32v32zM256 0h32v-32h-32v32zM480 224h32v-32h-32v32zM32 224h32v-32h-32v32zM64 256h32v-32h-32v32zM0 256h32v-32h-32v32zM128 256h32v-32h-32v32zM160 224h32v-32h-32v32zM192 256h32v-32h-32v32zM288 224h32v-32h-32v32zM320 256h32v-32h-32v32zM352 224h32v-32h-32v32zM384 256h32v-32h-32v32zM416 224h32v-32h-32v32zM448 256h32v-32h-32v32zM480 160h32v-32h-32v32zM288 160h32v-32h-32v32zM320 192h32v-32h-32v32zM352 160h32v-32h-32v32zM416 160h32v-32h-32v32zM448 192h32v-32h-32v32zM480 96h32v-32h-32v32zM288 96h32v-32h-32v32zM320 128h32v-32h-32v32zM384 128h32v-32h-32v32zM416 96h32v-32h-32v32zM448 128h32v-32h-32v32zM480 32h32v-32h-32v32zM320 64h32v-32h-32v32zM352 32h32v-32h-32v32zM384 64h32v-32h-32v32zM416 32h32v-32h-32v32zM320 0h32v-32h-32v32zM384 0h32v-32h-32v32zM448 0h32v-32h-32v32z" />
<glyph unicode="&#xe021;" d="M352 160q-12-12-22.4-29.6t-18.8-26-22.8-8.4q-15.2 0-33.2 10.8t-29.6 21.2-33.2 32-32 33.2-21.2 29.6-10.8 33.2q0 14.4 8.4 22.8t26 18.8 29.6 22.4q14.4 14.4-3.2 46t-47.2 56.8-45.6 25.2q-14.4 0-38.4-24t-40.8-48l-16.8-24q0-48 40.4-128.4t87.6-127.6 127.6-87.6 128.4-40.4q10.4 7.2 26.4 18.8t42.8 37.2 26.8 40q0 16-25.2 45.6t-56.8 47.2-46 3.2z" />
<glyph unicode="&#xe022;" d="M46.4 353.6q81.6-48.8 186.4-110.4 9.6-4.8 22.8-4.8t22 4.8q100.8 59.2 186.4 110.4 11.2 5.6 14 16.8t-12.4 12.8h-420.8q-17.6 0-10.4-16 4.8-9.6 12-13.6zM469.6 299.2q-144-83.2-192-110.4-8.8-5.6-22-5.6t-22.8 5.6q-113.6 65.6-192 110.4-6.4 2.4-7.6 0.8t-1.2-7.2v-200q0-8.8 8-17.6t16.8-8.8h397.6q8 0 16.4 8.8t8.4 17.6v200q0 5.6-1.2 7.2t-8.4-0.8z" />
<glyph unicode="&#xe023;" d="M256 480q-106.4 0-181.2-74.8t-74.8-181.2 74.8-181.2 181.2-74.8 181.2 74.8 74.8 181.2-74.8 181.2-181.2 74.8zM329.6 105.6l-105.6 104.8v141.6h64v-114.4l86.4-87.2z" />
<glyph unicode="&#xe024;" d="M329.6 105.6l-105.6 104.8v141.6h64v-114.4l86.4-87.2zM256 480q-106.4 0-181.2-74.8t-74.8-181.2 74.8-181.2 181.2-74.8 181.2 74.8 74.8 181.2-74.8 181.2-181.2 74.8zM256 32q-79.2 0-135.6 56.4t-56.4 135.6 56.4 135.6 135.6 56.4 135.6-56.4 56.4-135.6-56.4-135.6-135.6-56.4z" />
<glyph unicode="&#xe025;" d="M382.4 108.8q-44 15.2-60.8 32t-16.8 45.6q0 9.6 4.8 15.2t11.2 15.6 10.4 27.6q0.8 5.6 4 8t6.8 3.6 6.8 8.4 4.8 20q0 8-2.4 12.8t-4.8 6.4l-1.6 0.8q4 24 5.6 41.6 0.8 11.2-2.4 23.6t-12.8 26.4-30.4 23.2-48.8 9.2-48.8-9.2-30.4-23.2-12.8-26.4-2.4-23.6l5.6-41.6q-8.8-3.2-8.8-20 1.6-12.8 4.8-20t6.8-8.4 6.8-3.6 4-8q4-17.6 10.4-27.6t11.2-15.6 4.8-15.2q0-28.8-16.8-45.6t-60.8-32q-97.6-36-97.6-59.2v-49.6h448v49.6q0 23.2-97.6 59.2z" />
<glyph unicode="&#xe026;" d="M380.8-32q15.2 27.2 23.6 55.2t10.8 57.6-7.6 55.2-30.8 46-60 31.2-92.8 10v-127.2l-192 192 192 192v-124q64.8 1.6 114-16t76.8-48 40-70.8 7.2-83.6-26-87.6-55.2-82z" />
<glyph unicode="&#xe027;" d="M256 480q-106.4 0-181.2-74.8t-74.8-181.2 74.8-181.2 181.2-74.8 181.2 74.8 74.8 181.2-74.8 181.2-181.2 74.8zM384 306.4l-82.4-82.4 82.4-82.4v-45.6h-45.6l-82.4 82.4-82.4-82.4h-45.6v45.6l82.4 82.4-82.4 82.4v45.6h45.6l82.4-82.4 82.4 82.4h45.6v-45.6z" />
<glyph unicode="&#xe028;" d="M292.8 356v124l192-192-192-192v127.2q-53.6 0.8-92.8-10t-60-31.2-30.8-46-7.6-55.2 10.8-57.6 23.6-55.2q-34.4 37.6-55.2 82t-26 87.6 7.2 83.6 40 70.8 76.8 48 114 16z" />
<glyph unicode="&#xe029;" d="M112.8 256q46.4 0 79.2-32.8t32.8-79.2-32.8-79.2-79.2-32.8-79.2 32.8-32.8 79.2l-0.8 16q0 92.8 65.6 158.4t158.4 65.6v-64q-66.4 0-112.8-47.2-8.8-8-16-18.4 8.8 1.6 17.6 1.6zM400.8 256q46.4 0 79.2-32.8t32.8-79.2-32.8-79.2-79.2-32.8-79.2 32.8-32.8 79.2l-0.8 16q0 92.8 65.6 158.4t158.4 65.6v-64q-66.4 0-112.8-47.2-8.8-8-16-18.4 8.8 1.6 17.6 1.6z" />
<glyph unicode="&#xe02a;" d="M512 480v-192l-68.8 68.8-106.4-105.6-53.6 53.6 105.6 106.4-68.8 68.8h192zM123.2 411.2l105.6-106.4-53.6-53.6-106.4 105.6-68.8-68.8v192h192zM443.2 91.2l68.8 68.8v-192h-192l68.8 68.8-105.6 106.4 53.6 53.6zM228.8 143.2l-105.6-106.4 68.8-68.8h-192v192l68.8-68.8 106.4 105.6z" />
<glyph unicode="&#xe02b;" d="M32 192h192v-192l-68.8 68.8-101.6-100.8-53.6 53.6 100.8 101.6zM411.2 123.2l100.8-101.6-53.6-53.6-101.6 100.8-68.8-68.8v192h192zM480 256h-192v192l68.8-68.8 101.6 100.8 53.6-53.6-100.8-101.6zM155.2 379.2l68.8 68.8v-192h-192l68.8 68.8-100.8 101.6 53.6 53.6z" />
<glyph unicode="&#xe02c;" d="M501.6 71.2l-230.4 197.6q16.8 31.2 16.8 67.2 0 60-42 102t-102 42q-21.6 0-41.6-6.4l83.2-83.2q8.8-8.8 8.8-22.4t-8.8-22.4l-51.2-51.2q-8.8-8.8-22.4-8.8t-22.4 8.8l-83.2 83.2q-6.4-20-6.4-41.6 0-60 42-102t102-42q36 0 67.2 16.8l197.6-230.4q8.8-9.6 21.6-10.4t21.6 8.8l51.2 51.2q9.6 8.8 8.8 21.6t-10.4 21.6z" />
<glyph unicode="&#xe02d;" d="M512 176v96l-73.6 12q-4 13.6-10.4 26.4l43.2 60.8-68 68-60.8-43.2q-12.8 6.4-26.4 10.4l-12 73.6h-96l-12-73.6q-13.6-4-26.4-10.4l-60.8 43.2-68-68 43.2-60.8q-6.4-12.8-10.4-26.4l-73.6-12v-96l73.6-12q4.8-13.6 10.4-26.4l-43.2-60.8 68-68 60.8 44q12.8-6.4 26.4-11.2l12-73.6h96l12 73.6q13.6 4.8 26.4 11.2l60.8-44 68 68-43.2 60.8q5.6 12.8 10.4 26.4zM256 160q-26.4 0-45.2 18.8t-18.8 45.2 18.8 45.2 45.2 18.8 45.2-18.8 18.8-45.2-18.8-45.2-45.2-18.8z" />
<glyph unicode="&#xe02e;" d="M504.8 65.6l-150.4 150.4q-7.2 7.2-17.2 7.2t-17.2-7.2l-11.2-11.2-92 92 151.2 151.2h-160l-71.2-71.2-7.2 7.2h-33.6v-33.6l7.2-7.2-103.2-103.2 80-80 103.2 103.2 92-92-11.2-11.2q-7.2-7.2-7.2-17.2t7.2-17.2l150.4-150.4q7.2-7.2 17.2-7.2t17.2 7.2l56 56q7.2 7.2 7.2 17.2t-7.2 17.2z" />
<glyph unicode="&#xe02f;" d="M476.8 442.4l-2.4 2.4q-35.2 35.2-85.2 35.2t-86-35.2l-108.8-108.8q-35.2-36-35.2-86t35.2-85.2l2.4-2.4q4.8-5.6 12-10.4l40 40q-7.2 4-12.8 9.6l-2.4 2.4q-19.2 19.2-19.2 46.4t19.2 46.4l108.8 108.8q19.2 19.2 46.4 19.2t46.4-19.2l2.4-2.4q19.2-19.2 19.2-46.4t-19.2-46.4l-49.6-48.8q12.8-32 12-66.4l76.8 76q35.2 36 35.2 86t-35.2 85.2zM315.2 285.6q-5.6 5.6-12 10.4l-40-40q7.2-4 12.8-9.6l2.4-2.4q19.2-19.2 19.2-46.4t-19.2-46.4l-108.8-108.8q-19.2-19.2-46.4-19.2t-46.4 19.2l-2.4 2.4q-19.2 19.2-19.2 46.4t19.2 46.4l49.6 48.8q-12.8 32-12 66.4l-76.8-76q-35.2-36-35.2-86t35.2-85.2l2.4-2.4q35.2-35.2 85.2-35.2t86 35.2l108.8 108.8q35.2 36 35.2 86t-35.2 85.2z" />
<glyph unicode="&#xe030;" d="M437.2 405.2q74.8-74.8 74.8-181.2t-74.8-181.2-181.2-74.8-181.2 74.8-74.8 181.2 74.8 181.2 181.2 74.8 181.2-74.8zM414.4 65.6q48 48 60.8 113.6-12-18.4-16.8 8.8-1.6 16-12.4 20t-22.8 1.6-23.2 4q-8.8-4-20.4-2.4t-22.4 5.2-16.8-1.2-3.6-21.6q3.2-4.8 9.6-5.6t10.8 0.4 13.2 4.4q6.4 2.4 9.6 3.2t5.6 0 0.4-6-7.6-14q-2.4-4.8-13.2-23.2t-17.6-31.2-15.2-30.8-12-32.8-2-25.2q0.8-19.2-8-24.8t-22.4 0.8-24.8 14.4-20 16.8q-4.8 12-8 40.4t-9.6 48.8-21.6 28.4q-16.8 0.8-27.2 2.4t-22.8 6-20.8 14-13.2 24.8q-7.2 23.2 5.6 49.6t36 31.2q15.2 11.2 30.4 7.2t24.4-13.2 24-19.2 28.4-10q5.6 5.6 29.2 15.6t25.2 18.8q-7.2 1.6-8 4t2.8 5.2 7.6 6.4 6.4 6.8 0 6.8-12 6q-16-1.6-24-14t0-25.2q-11.2-2.4-20.8 2.4t-15.2 13.2-12.8 16-14.8 10.4-20.4-3.6q-0.8-18.4-20.8-18.4-15.2-0.8-16.8 6.4-0.8 5.6 15.2 8 8 3.2-5.6 16.8-5.6 4.8-3.2 5.6 1.6 0 5.6-0.8 16.8 1.6 32.8 12 8 5.6 3.2 9.6 7.2 3.2 14.4 0.8t13.6-7.2 13.6-4 13.6 11.2q10.4 16.8 0.4 21.2t-23.6-5.2q-6.4 7.2 7.6 21.6t34 23.2q12.8 5.6 21.6 4.8 8.8-11.2 21.2-11.2t14 12.8q-45.6 21.6-96.8 21.6-74.4 0-133.6-44 18.4-8.8 6.4-18.4-6.4-19.2-26.8-36t-40.4-13.6q-21.6-37.6-27.2-80 10.4-4 17.2-9.6t7.2-10.4-1.2-8q-16.8-14.4-22.4-40.8 11.2-70.4 62.4-121.6 65.6-65.6 158.4-65.6t158.4 65.6z" />
<glyph unicode="&#xe031;" d="M416 393.6q41.6 0 96 36.8v-297.6q-54.4-36.8-96-36.8-56 0-96 27.2t-96 27.2q-43.2 0-96-35.2v297.6q52.8 35.2 96 35.2 56 0 96-27.2t96-27.2zM64 480q13.6 0 22.8-9.2t9.2-22.8v-480h-64v480q0 13.6 9.2 22.8t22.8 9.2z" />
<glyph unicode="&#xe032;" d="M464 192q16.8 0 19.2-24t-8.8-48-26.4-24q6.4-3.2 6-20.8t-12-38.4-26-20.8q0-22.4-19.2-35.2t-44.8-12.8q-57.6 0-84 8.8t-55.6 21.2-84.4 18v256q94.4 28 167.2 88.8t72.8 119.2q9.6 0 19.6-4.4t19.2-17.6 10.8-33.2-10.4-55.6-39.2-81.2h96q22.4 0 28.4-24t-3.6-48-24.8-24zM96 272v-256h32v-16h-64q-12.8 0-22.4 14t-9.6 34v192q0 20 9.6 34t22.4 14h64v-16h-32z" />
<glyph unicode="&#xe033;" d="M53.6 256q-16.8 0-19.2 24t8.8 48 26.4 24q-6.4 3.2-6 20.8t12 38.4 26 20.8q0 22.4 19.2 35.2t44.8 12.8q57.6 0 84-8.8t55.6-21.2 84.4-18v-256q-94.4-28-167.2-88.8t-72.8-119.2q-9.6 0-19.6 4.4t-19.2 17.6-10.8 33.2 10.4 55.6 39.2 81.2h-96q-22.4 0-28.4 24t3.6 48 24.8 24zM421.6 176v256h-32v16h64q12.8 0 22.4-14t9.6-34v-192q0-20-9.6-34t-22.4-14h-64v16h32z" />
<glyph unicode="&#xe034;" d="M512 300.8q0-64.8-48-108.8l-160-160q-32-32-48-32t-48 32l-160 160q-48 44-48 108.8 0 60.8 43.2 104t104 43.2q64.8 0 108.8-48 44 48 108.8 48 60.8 0 104-43.2t43.2-104z" />
<glyph unicode="&#xe035;" d="M512 281.6l-176.8 25.6-79.2 160-79.2-160-176.8-25.6 128-124.8-30.4-176 158.4 83.2 158.4-83.2-30.4 176z" />
<glyph unicode="&#xe036;" d="M512 300.8q0 60.8-43.2 104t-104 43.2q-64.8 0-108.8-48-44 48-108.8 48-60.8 0-104-43.2t-43.2-104q0-64.8 48-108.8l160-160q32-32 48-32t48 32l160 160q48 44 48 108.8zM420.8 239.2l-162.4-161.6q-1.6-2.4-2.4-3.2-1.6 1.6-2.4 3.2l-162.4 161.6q-27.2 24.8-27.2 61.6 0 34.4 24.4 58.8t58.8 24.4q36.8 0 61.6-27.2l47.2-52 47.2 52q24.8 27.2 61.6 27.2 34.4 0 58.8-24.4t24.4-58.8q0-36.8-27.2-61.6z" />
<glyph unicode="&#xe037;" d="M512 281.6l-176.8 25.6-79.2 160-79.2-160-176.8-25.6 128-124.8-30.4-176 158.4 83.2 158.4-83.2-30.4 176zM256 103.2l-112-58.4 21.6 124-90.4 88 124.8 18.4 56 112.8 56-112.8 124.8-18.4-90.4-88 21.6-124z" />
<glyph unicode="&#xe038;" d="M97.6 272v-96q0-6.4 4.8-11.2t11.2-4.8h284.8q6.4 0 11.2 4.8t4.8 11.2v96q0 6.4-4.8 11.2t-11.2 4.8h-284.8q-6.4 0-11.2-4.8t-4.8-11.2z" />
<glyph unicode="&#xe039;" d="M398.4 288h-78.4v80.8q0 6.4-4.8 11.2t-11.2 4.8h-96q-6.4 0-11.2-4.8t-4.8-11.2v-80.8h-79.2q-6.4 0-11.2-4.8t-4.8-11.2v-96q0-6.4 4.8-11.2t11.2-4.8h79.2v-77.6q0-6.4 4.8-11.2t11.2-4.8h96q6.4 0 11.2 4.8t4.8 11.2v77.6h78.4q6.4 0 11.2 4.8t4.8 11.2v96q0 6.4-4.8 11.2t-11.2 4.8z" />
<glyph unicode="&#xe03a;" d="M416 256h-32v96q0 52.8-37.6 90.4t-90.4 37.6-90.4-37.6-37.6-90.4v-96h-32q-12.8 0-22.4-9.6t-9.6-22.4v-224q0-12.8 9.6-22.4t22.4-9.6h320q12.8 0 22.4 9.6t9.6 22.4v224q0 12.8-9.6 22.4t-22.4 9.6zM256 64q-13.6 0-22.8 9.2t-9.2 22.8 9.2 22.8 22.8 9.2 22.8-9.2 9.2-22.8-9.2-22.8-22.8-9.2zM320 256h-128v96q0 26.4 18.8 45.2t45.2 18.8 45.2-18.8 18.8-45.2v-96z" />
<glyph unicode="&#xe03b;" d="M384 448h-64q-40 0-68-28t-28-68v-96h-200q-9.6 0-16.8-7.2t-7.2-16.8v-240q0-9.6 7.2-16.8t16.8-7.2h272q9.6 0 16.8 7.2t7.2 16.8v240q0 9.6-7.2 16.8t-16.8 7.2h-8v96q0 13.6 9.2 22.8t22.8 9.2h64q13.6 0 22.8-9.2t9.2-22.8v-96h64v96q0 40-28 68t-68 28zM192 32h-64l13.6 69.6q-13.6 9.6-13.6 26.4 0 13.6 9.2 22.8t22.8 9.2 22.8-9.2 9.2-22.8q0-16.8-13.6-26.4z" />
<glyph unicode="&#xe03c;" d="M352 480q-66.4 0-113.2-46.8t-46.8-113.2q0-14.4 2.4-29.6l-194.4-194.4v-96q0-13.6 9.2-22.8t22.8-9.2h32v32h64v64h64v64h64l41.6 41.6q26.4-9.6 54.4-9.6 66.4 0 113.2 46.8t46.8 113.2-46.8 113.2-113.2 46.8zM400 320q-20 0-34 14t-14 34 14 34 34 14 34-14 14-34-14-34-34-14z" />
<glyph unicode="&#xe03d;" d="M255.2 418.4v-97.6h179.2v-193.6h-179.2v-97.6l-194.4 194.4z" />
<glyph unicode="&#xe03e;" d="M449.6 224h-97.6v179.2h-193.6v-179.2h-97.6l194.4-194.4z" />
<glyph unicode="&#xe03f;" d="M449.6 224h-97.6v-179.2h-193.6v179.2h-97.6l194.4 194.4z" />
<glyph unicode="&#xe040;" d="M255.2 418.4v-97.6h-179.2v-193.6h179.2v-97.6l194.4 194.4z" />
<glyph unicode="&#xe041;" d="M255.2 55.2v97.6h179.2v142.4h-179.2v97.6l-194.4-168.8z" />
<glyph unicode="&#xe042;" d="M424 224h-97.6v179.2h-142.4v-179.2h-97.6l168.8-194.4z" />
<glyph unicode="&#xe043;" d="M424 224h-97.6v-179.2h-142.4v179.2h-97.6l168.8 194.4z" />
<glyph unicode="&#xe044;" d="M255.2 392.8v-97.6h-179.2v-142.4h179.2v-97.6l194.4 168.8z" />
<glyph unicode="&#xe045;" d="M358.4 341.6v-235.2l-204.8 117.6z" />
<glyph unicode="&#xe046;" d="M372.8 326.4h-235.2l117.6-204.8z" />
<glyph unicode="&#xe047;" d="M146.4 224q0 44 32 75.2t77.6 31.2 77.6-31.2 32-75.2-32-75.2-77.6-31.2-77.6 31.2-32 75.2zM0 220q36-70.4 104-113.2t150.4-42.8q84 0 153.2 44.8t104.4 119.2q-36 70.4-104 113.2t-150.4 42.8q-84 0-153.2-44.8t-104.4-119.2zM200.8 224q0-22.4 16.4-38t38.8-15.6 38.8 15.6 16.4 38-16.4 38-38.8 15.6-38.8-15.6-16.4-38z" />
<glyph unicode="&#xe048;" d="M80 400q-16.8-16.8-16.8-44t16.8-44l88-88-88-88q-16.8-16.8-16.8-44t16.8-44 44-16.8 44 16.8l88 88 88-88q16.8-16.8 44-16.8t44 16.8 16.8 44-16.8 44l-88 88 88 88q16.8 16.8 16.8 44t-16.8 44-44 16.8-44-16.8l-88-88-88 88q-16.8 16.8-44 16.8t-44-16.8z" />
<glyph unicode="&#xe049;" d="M448 432l-251.2-228.8-100.8 100.8-96-96 192-192 320 352z" />
<glyph unicode="&#xe04a;" d="M256 96q-12 0-22 10t-10 22v64h-64q-12 0-22 10t-10 22 10 22 22 10h64v64q0 12 10 22t22 10 22-10 10-22v-64h64q12 0 22-10t10-22-10-22-22-10h-64v-64q0-12-10-22t-22-10zM0 224q0-106.4 74.8-181.2t181.2-74.8 181.2 74.8 74.8 181.2-74.8 181.2-181.2 74.8-181.2-74.8-74.8-181.2z" />
<glyph unicode="&#xe04b;" d="M128 224q0 12 10 22t22 10h192q12 0 22-10t10-22-10-22-22-10h-192q-12 0-22 10t-10 22zM0 224q0-106.4 74.8-181.2t181.2-74.8 181.2 74.8 74.8 181.2-74.8 181.2-181.2 74.8-181.2-74.8-74.8-181.2z" />
<glyph unicode="&#xe04c;" d="M296 256h-8v96q0 40-28 68t-68 28h-64q-40 0-68-28t-28-68v-96h-8q-9.6 0-16.8-7.2t-7.2-16.8v-240q0-9.6 7.2-16.8t16.8-7.2h272q9.6 0 16.8 7.2t7.2 16.8v240q0 9.6-7.2 16.8t-16.8 7.2zM192 32h-64l13.6 69.6q-13.6 9.6-13.6 26.4 0 13.6 9.2 22.8t22.8 9.2 22.8-9.2 9.2-22.8q0-16.8-13.6-26.4zM224 256h-128v96q0 13.6 9.2 22.8t22.8 9.2h64q13.6 0 22.8-9.2t9.2-22.8v-96z" />
<glyph unicode="&#xe04d;" d="M137.6 121.6h235.2l-117.6 204.8z" />
<glyph unicode="&#xe04e;" d="M254.4 108.8q-44 15.2-60.8 32t-16.8 45.6q0 9.6 4.8 15.2t11.2 15.6 10.4 27.6q0.8 5.6 4 8t6.8 3.6 6.8 8.4 4.8 20q0 8-2.4 12.8t-4.8 6.4l-1.6 0.8q4 24 5.6 41.6 0.8 11.2-2.4 23.6t-12.8 26.4-30.4 23.2-48.8 9.2-48.8-9.2-30.4-23.2-12.8-26.4-2.4-23.6l5.6-41.6q-8.8-3.2-8.8-20 1.6-12.8 4.8-20t6.8-8.4 6.8-3.6 4-8q4-17.6 10.4-27.6t11.2-15.6 4.8-15.2q0-28.8-16.8-45.6t-31.2-18.4q-0.8-49.6-0.8-71.2v-51.2h321.6v49.6q0 23.2-97.6 59.2zM479.2 240.8v-31.2q0-5.6-6.4-10.4t-13.6-4.8h-169.6q-7.2 0-13.6 4.8t-6.4 10.4v31.2q0 5.6 6.4 10.4t13.6 4.8h169.6q7.2 0 13.6-4.8t6.4-10.4zM479.2 112.8v-31.2q0-5.6-6.4-10.4t-13.6-4.8h-47.2q-7.2 0-13.6 4.8t-6.4 10.4v31.2q0 5.6 6.4 10.4t13.6 4.8h47.2q7.2 0 13.6-4.8t6.4-10.4zM479.2 368.8v-31.2q0-5.6-6.4-10.4t-13.6-4.8h-169.6q-7.2 0-13.6 4.8t-6.4 10.4v31.2q0 5.6 6.4 10.4t13.6 4.8h169.6q7.2 0 13.6-4.8t6.4-10.4z" />
<glyph unicode="&#xe04f;" d="M153.6 341.6v-235.2l204.8 117.6z" />
<glyph unicode="&#xe050;" d="M292.8 364q-3.2-2.4-16-16t-29.2-30.8-32.4-33.6-26.8-28l-10.8-11.6q-8.8-8-8.8-20t8.8-20q104.8-109.6 115.2-120 8-8 20.4-8.4t21.2 8.4q19.2 18.4 0 40l-96 100 96 100q19.2 21.6 0 40-8.8 8.8-21.2 8.4t-20.4-8.4z" />
<glyph unicode="&#xe051;" d="M396 260.8l-120-115.2q-8-8.8-20-8.8t-20 8.8q-109.6 104.8-120 115.2-8 8-8.4 20.4t8.4 21.2q18.4 19.2 40 0l100-96 100 96q21.6 19.2 40 0 8.8-8.8 8.4-21.2t-8.4-20.4z" />
<glyph unicode="&#xe052;" d="M396 187.2q-4 4.8-34 33.6t-58 55.2l-28 26.4q-8 8.8-20 8.8t-20-8.8q-109.6-104.8-120-115.2-8-8-8.4-20.4t8.4-21.2q18.4-19.2 40 0l100 96 100-96q21.6-19.2 40 0 8.8 8.8 8.4 21.2t-8.4 20.4z" />
<glyph unicode="&#xe053;" d="M238.4 364q3.2-2.4 16-16t29.2-30.8 32.4-33.6 26.8-28l10.8-11.6q8.8-8 8.8-20t-8.8-20q-104.8-109.6-115.2-120-8-8-20.4-8.4t-21.2 8.4q-19.2 18.4 0 40l96 100-96 100q-19.2 21.6 0 40 8.8 8.8 21.2 8.4t20.4-8.4z" />
<glyph unicode="&#xe054;" d="M368 34.4q4.8-5.6 4.8-12.8t-5.2-12.4-12.4-5.2-12 4.8l-200.8 202.4q-4.8 5.6-4.8 12.8t4.8 12.8l200.8 202.4q4.8 4.8 12 4.8t12.4-5.2 5.2-12.4-4.8-12.8l-183.2-189.6z" />
<glyph unicode="&#xe055;" d="M65.6 336.8q-5.6 4.8-12.8 4.8t-12.4-5.2-5.2-12.4 4.8-12l202.4-200.8q5.6-4.8 12.8-4.8t12.8 4.8l202.4 200.8q4.8 4.8 4.8 12t-5.2 12.4-12.4 5.2-12.8-4.8l-189.6-183.2z" />
<glyph unicode="&#xe056;" d="M444.8 111.2q5.6-4.8 12.8-4.8t12.4 5.2 5.2 12.4-4.8 12l-202.4 200.8q-5.6 4.8-12.8 4.8t-12.8-4.8l-202.4-200.8q-4.8-4.8-4.8-12t5.2-12.4 12.4-5.2 12.8 4.8l189.6 183.2z" />
<glyph unicode="&#xe057;" d="M142.4 34.4q-4.8-5.6-4.8-12.8t5.2-12.4 12.4-5.2 12 4.8l200.8 202.4q4.8 5.6 4.8 12.8t-4.8 12.8l-200.8 202.4q-4.8 4.8-12 4.8t-12.4-5.2-5.2-12.4 4.8-12.8l183.2-189.6z" />
<glyph unicode="&#xe058;" d="M46.4 353.6q81.6-48.8 186.4-110.4 9.6-4.8 22.8-4.8t22 4.8q100.8 59.2 186.4 110.4 11.2 5.6 14 16.8t-12.4 12.8h-420.8q-17.6 0-10.4-16 4.8-9.6 12-13.6zM469.6 299.2q-144-83.2-192-110.4-8.8-5.6-22-5.6t-22.8 5.6q-113.6 65.6-192 110.4-6.4 2.4-7.6 0.8t-1.2-7.2v-200q0-8.8 8-17.6t16.8-8.8h397.6q8 0 16.4 8.8t8.4 17.6v200q0 5.6-1.2 7.2t-8.4-0.8z" />
<glyph unicode="&#xe059;" d="M108.8-25.6q2.4 8.8 14.4 46.4t21.6 67.2q15.2 2.4 36.4 4t31.2 3.2 24 7.6 25.6 19.6 24.4 36.8q-16.8-4.8-35.6 1.2t-30.4 16-10 17.2q0 4 11.2 5.2t29.2 3.6 38.4 8.8 43.6 23.2 41.6 42.4q-64.8-14.4-92 11.2-10.4 11.2-4 16.8 8 4.8 34.4 8t54.4 11.2 44 24q14.4 14.4 20.8 42.4t0 41.6q-7.2 16-42 32.8t-58 15.2q-13.6-1.6-34.8-32.8t-39.2-61.6-23.6-29.6q-8 0-10.8 15.6t2 40.4 16.8 48.8q-23.2-11.2-52.8-36.4t-40.8-48.4q-12.8-26.4-12.8-80t5.2-85.2-0.4-42.8q-7.2-3.2-26.8 33.2t-28.4 63.6q-8-26.4-8.8-49.6t7.6-52 28.4-60q-23.2-61.6-25.6-116-0.8-16 11.2-19.2 8-1.6 10.4 6.4z" />
<glyph unicode="&#xe05a;" d="M522.4-1.6q0 92.8-6.4 102.4-5.6 9.6-20 18t-44 21.2q-28 12-38 23.2t-10 32q0 8 6.8 16.8t9.2 24.8q0.8 3.2 2.8 5.2t4 2.8 4 5.6 2.8 14.4q0 5.6-1.2 8.8t-2.8 4.8l-1.6 0.8q3.2 16.8 4 29.6 0.8 7.2-1.6 16.4t-8 18.8-18.4 16.4-30.4 6.8-30.4-6.8-18.4-16.4-8-18.8-1.6-16.4l4-29.6q-5.6-3.2-5.6-14.4 0.8-9.6 2.8-14.4t4.4-5.6 4-2.8 2.4-5.2q2.4-16 9.2-24.8t6.8-16.8q0-26.4-20-40.8 60-30.4 74.8-43.6t14.8-38.8v-73.6h109.6zM284 126.4q-36.8 15.2-50 30.8t-13.2 42.8q0 9.6 8.8 21.6t12 33.6q0.8 4.8 3.6 7.2t5.6 3.6 5.2 7.6 3.2 19.2q0 7.2-1.2 11.6t-3.6 6l-1.6 1.6q4 22.4 4.8 40 0.8 8.8-2 20.8t-10.4 25.2-24.8 22-40.4 8.8-40.4-8.8-24.8-22-10.8-25.2-1.6-20.8l4.8-40q-7.2-4-7.2-19.2 0.8-12.8 3.6-19.2t5.2-7.6 5.6-3.6 4-7.2q3.2-21.6 12-33.6t8.8-21.6q0-27.2-13.6-42.8t-49.6-30.8q-0.8-0.8-2.4-1.6-12-4-18.4-7.2t-13.6-11.6-7.2-18v-89.6h339.2v67.2q0 13.6-23.2 28t-66.4 32.8z" />
<glyph unicode="&#xe05b;" d="M254.4 108.8q-44 15.2-60.8 32t-16.8 45.6q0 9.6 4.8 15.2t11.2 15.6 10.4 27.6q0.8 5.6 4 8t6.8 3.6 6.8 8.4 4.8 20q0 8-2.4 12.8t-4.8 6.4l-1.6 0.8q4 24 5.6 41.6 0.8 11.2-2.4 23.6t-12.8 26.4-30.4 23.2-48.8 9.2-48.8-9.2-30.4-23.2-12.8-26.4-2.4-23.6l5.6-41.6q-8.8-3.2-8.8-20 1.6-12.8 4.8-20t6.8-8.4 6.8-3.6 4-8q4-17.6 10.4-27.6t11.2-15.6 4.8-15.2q0-28.8-16.8-45.6t-31.2-18.4q-0.8-49.6-0.8-71.2v-51.2h321.6v49.6q0 23.2-97.6 59.2zM479.2 240.8v-31.2q0-5.6-6.4-10.4t-13.6-4.8h-169.6q-7.2 0-13.6 4.8t-6.4 10.4v31.2q0 5.6 6.4 10.4t13.6 4.8h169.6q7.2 0 13.6-4.8t6.4-10.4zM359.2 330.4h30.4q6.4 0 11.2-6.4t4.8-14.4v-168.8q0-8-4.8-14t-11.2-6h-30.4q-6.4 0-10.8 6t-4.4 14v168.8q0 8 4.4 14.4t10.8 6.4z" />
<glyph unicode="&#xe05c;" d="M360.8 422.8q-44 31.6-110.4 31.6-50.4 0-84.8-22.4-54.4-34.4-58.4-117.6h84.8q0 24 14.4 46.4t48 22.4q34.4 0 47.6-18.4t13.2-40q0-16-14.4-35.2-6.4-9.6-16.8-17.6-46.4-29.6-66.4-52.8-8-9.6-10.4-23.6t-3.2-40.4q0-6.4 8-6.4h65.6q8 0 8 7.2 0.8 12 4 22.4 4.8 14.4 24.8 30.4l23.2 16q37.6 28.8 45.6 40.8 21.6 28.8 21.6 64 0 61.6-44 93.2zM249.6 97.6q-22.4 0.8-38-13.2t-16.4-37.2 14-38 37.2-15.6q23.2-0.8 38.8 13.2t16 37.2-14 38.4-37.6 15.2z" />
<glyph unicode="&#xe05d;" d="M317.6 480q24.8 0 38-14.4t13.2-36q0-25.6-20-44.8t-48.8-19.2q-24 0-37.6 13.6t-12.8 37.6q0 22.4 18.4 42.8t49.6 20.4zM212-32q-51.2 0-28 90.4l31.2 130.4q7.2 28.8 0 28.8-6.4 0-28-9.2t-36-19.6l-13.6 23.2q46.4 39.2 96.8 64t76.8 24.8q20 0 24.4-22.8t-6-60.4l-36-136.8q-8-32.8 3.2-32.8 7.2 0 25.2 8.4t35.6 22.8l15.2-20.8q-43.2-44-89.6-67.2t-71.2-23.2z" />
<glyph unicode="&#xe05e;" d="M504 20l-228 400q-4.8 8.8-15.2 8.8t-15.2-8.8l-228-400q-5.6-8.8-0.4-17.6t15.6-8.8h456q10.4 0 15.6 8.8t-0.4 17.6zM288.8 44.8h-56v51.2h56v-51.2zM288.8 134.4h-56v153.6h56v-153.6z" />
<glyph unicode="&#xe05f;" d="M253.6 459.6q-97.6-1.2-165.6-71.2t-66.8-167.6 71.2-165.6 167.6-66.8 165.6 71.2 66.8 167.6-71.2 165.6-167.6 66.8zM254.4 428.8q51.2 0.8 96.8-23.2l-31.2-52.8q-30.4 14.4-63.2 14.4t-63.2-14.4l-31.2 52.8q43.2 22.4 92 23.2zM128 160.8l-52.8-31.2q-22.4 43.2-23.2 92-0.8 51.2 23.2 96.8l52.8-31.2q-14.4-30.4-14.4-63.2t14.4-63.2zM259.2 19.2q-51.2-0.8-96.8 23.2l31.2 52.8q30.4-14.4 63.6-14.4t62.8 14.4l31.2-52.8q-43.2-22.4-92-23.2zM256.8 111.2q-46.4 0-79.6 33.2t-33.2 79.6 33.2 79.6 79.6 33.2 79.6-33.2 33.2-79.6-33.2-79.6-79.6-33.2zM385.6 160.8q14.4 30.4 14.4 63.2t-14.4 63.2l52.8 31.2q22.4-43.2 23.2-92 0.8-51.2-23.2-96.8z" />
<glyph unicode="&#xe060;" d="M255.2 280q-23.2 0-39.6-16.4t-16.4-39.6 16.4-39.6 39.6-16.4 39.6 16.4 16.4 39.6-16.4 39.6-39.6 16.4z" />
<glyph unicode="&#xe061;" d="M165.6 280q-23.2 0-39.6-16.4t-16.4-39.6 16.4-39.6 39.6-16.4 39.6 16.4 16.4 39.6-16.4 39.6-39.6 16.4zM344.8 280q-23.2 0-39.6-16.4t-16.4-39.6 16.4-39.6 39.6-16.4 39.6 16.4 16.4 39.6-16.4 39.6-39.6 16.4z" />
<glyph unicode="&#xe062;" d="M76 280q-23.2 0-39.6-16.4t-16.4-39.6 16.4-39.6 39.6-16.4 39.6 16.4 16.4 39.6-16.4 39.6-39.6 16.4zM255.2 280q-23.2 0-39.6-16.4t-16.4-39.6 16.4-39.6 39.6-16.4 39.6 16.4 16.4 39.6-16.4 39.6-39.6 16.4zM434.4 280q-23.2 0-39.6-16.4t-16.4-39.6 16.4-39.6 39.6-16.4 39.6 16.4 16.4 39.6-16.4 39.6-39.6 16.4z" />
<glyph unicode="&#xe063;" d="M240 480v0c132.548 0 240-86.957 240-194.224s-107.452-194.224-240-194.224c-12.729 0-25.223 0.81-37.417 2.355-51.553-51.347-111.086-60.554-170.583-61.907v12.567c32.126 15.677 58 44.233 58 76.867 0 4.553-0.356 9.024-1.015 13.397-54.279 35.607-88.985 89.994-88.985 150.945 0 107.267 107.452 194.224 240 194.224zM498 44.657c0-27.971 18.157-52.449 46-65.886v-10.771c-51.563 1.159-98.893 9.051-143.571 53.063-10.57-1.325-21.397-2.020-32.429-2.020-47.735 0-91.704 12.879-126.807 34.52 72.337 0.253 140.63 23.427 192.417 65.336 26.104 21.126 46.697 45.913 61.207 73.674 15.383 29.433 23.183 60.791 23.183 93.203 0 5.224-0.225 10.418-0.629 15.584 36.285-29.967 58.629-70.811 58.629-115.838 0-52.244-30.079-98.861-77.12-129.382-0.571-3.748-0.88-7.58-0.88-11.483z" horiz-adv-x="576" />
<glyph unicode="&#xe064;" d="M256 448c141.385 0 256-93.125 256-208s-114.615-208-256-208c-13.578 0-26.905 0.867-39.912 2.522-54.989-54.989-120.625-64.85-184.088-66.298v13.458c34.268 16.789 64 47.37 64 82.318 0 4.877-0.379 9.665-1.082 14.348-57.898 38.132-94.918 96.377-94.918 161.652 0 114.875 114.615 208 256 208z" />
<glyph unicode="&#xe065;" d="M426.25 394.5c-94.159 0-170.5-76.341-170.5-170.5s76.341-170.5 170.5-170.5c94.159 0 170.5 76.341 170.5 170.5s-76.342 170.5-170.5 170.5zM489.037 282.14c-7.375 10.102-18.798 15.175-34.314 15.175-25.916 0-45.14-13.384-57.544-40.11h72.334l-4.348-22.463h-75.020c-0.681-3.154-1.746-9.591-2.983-19.352h74.38l-4.348-22.634h-70.884c0.682-11.466 5.115-21.312 13.299-29.496s18.030-12.276 29.411-12.276c17.135 0 32.097 4.816 44.884 14.493l-9.634-44.16c-12.703-4.731-25.49-7.118-38.278-7.118-25.788 0-45.864 7.545-60.144 22.549-13.214 13.768-20.887 32.437-23.017 56.009h-20.46l4.391 22.634h16.539c0.384 4.688 1.108 11.125 2.174 19.309l-23.102-0.001 4.391 22.463h23.87c7.672 23.102 20.971 41.986 39.897 56.692 18.329 14.279 40.025 21.398 65.045 21.398 19.608 0 36.104-4.519 49.488-13.555l-16.027-39.557zM426.335 479.75c-141.259 0-255.835-114.533-255.835-255.793 0-141.131 114.576-255.622 255.835-255.622 141.217 0 255.665 114.491 255.665 255.622 0 141.26-114.491 255.793-255.665 255.793zM426.335 10.876c-117.773 0-213.21 95.394-213.21 213.039 0 117.773 95.437 213.21 213.21 213.21 117.645 0 213.040-95.437 213.040-213.21 0-117.645-95.395-213.039-213.040-213.039zM0.299 183.549c-0.043-0.725-0.299-1.407-0.299-2.131v-42.625c0-44.841 103.877-81.499 235.716-84.909-13.214 14.791-24.936 30.946-34.483 48.508-112.956 8.183-197.951 41.26-200.934 81.157zM0.299 268.799c-0.043-0.725-0.299-1.406-0.299-2.132v-42.625c0-38.789 77.748-71.482 184.097-81.797-5.243 15.388-8.951 31.457-11.125 48.039-98.549 11.295-169.946 42.028-172.673 78.515zM0 309.25c0-37.127 71.354-68.626 170.756-80.348 1.236 63.511 25.618 121.182 65.003 165.257-131.882-3.41-235.759-40.067-235.759-84.909zM255.75 15.137c-139.128 0-252.042 37.084-255.451 83.162-0.043-0.724-0.299-1.407-0.299-2.131v-42.625c0-47.058 114.533-85.25 255.75-85.25 38.661 0 75.19 2.941 108.054 8.056-31.031 7.8-59.803 21.142-85.208 39.13-7.544-0.171-15.131-0.342-22.846-0.342z" horiz-adv-x="682" />
<glyph unicode="&#xe066;" d="M1.618 194.947h455.878l-227.484-227.654h79.946l256.935 256.935-40.074 40.1-0.055-0.057-216.806 216.806h-79.946l229.273-229.444h-457.667z" horiz-adv-x="568" />
<glyph unicode="&#xe067;" d="M566.893 253.422h-455.878l227.484 227.655h-79.946l-256.935-256.935 40.073-40.1 0.057 0.057 216.805-216.806h79.946l-229.273 229.443h457.667z" horiz-adv-x="568" />
<glyph unicode="&#xe068;" d="M0.894-27.535v285.767l251.523 215.815 247.808-215.814v-285.029l-189.762-0.001 0.25 142.884c0 0 1.703 23.814-25.552 23.814h-73.68c-22.326 0-20.587-23.814-20.587-23.814l0.5-143.384-190.5-0.238z" horiz-adv-x="500" />
<glyph unicode="&#xe069;" d="M496.131 44.302l-121.276 103.147c-12.537 11.283-25.945 16.463-36.776 15.963 28.628 33.534 45.921 77.039 45.921 124.588 0 106.039-85.961 192-192 192s-192-85.961-192-192c0-106.039 85.961-192 192-192 47.549 0 91.054 17.293 124.588 45.922-0.5-10.831 4.68-24.239 15.963-36.776l103.147-121.276c17.661-19.623 46.511-21.277 64.11-3.678s15.946 46.449-3.677 64.11zM192 160c-70.692 0-128 57.308-128 128s57.308 128 128 128 128-57.308 128-128-57.307-128-128-128z" />
<glyph unicode="&#xe06a;" d="M209.754 324.467c-3.779-3.058-6.75-6.851-8.942-11.351-2.163-4.5-3.238-9.793-3.238-15.894 0-9.562 3.050-16.975 9.144-22.218 6.101-5.221 16.11-9.432 30.093-12.627v71.017c-4.969 0-9.764-0.757-14.394-2.192-4.644-1.471-8.87-3.685-12.656-6.735zM262.49 193.078v-83.607c5.235 0.548 10.673 1.803 16.326 3.678 5.668 1.875 10.738 4.55 15.259 8.084 4.493 3.461 8.192 7.745 11.113 12.836 2.885 5.077 4.348 11.091 4.348 18.093 0 11.351-3.562 19.817-10.673 25.485-7.139 5.675-19.225 10.81-36.359 15.432zM366.585 125.335c-3.209-9.728-8.906-19.196-17.199-28.549-8.25-9.274-19.369-17.531-33.294-24.807-13.983-7.276-31.809-11.632-53.609-13.088v-37.001h-25.694v37.001c-32.544 2.351-57.957 12.331-76.281 30.071-18.288 17.725-28.881 43.722-31.78 78.004h61.404c-0.267-16.55 4.067-29.638 13.081-39.222 9-9.584 20.199-15.663 33.576-18.288v91.013c-1.471 0.584-3.433 1.255-5.899 1.976-2.459 0.743-5.163 1.392-8.084 1.976-10.723 2.892-21.338 6.31-31.809 10.218-10.427 3.945-19.802 9.151-28.073 15.706-8.286 6.526-14.891 14.646-19.824 24.41-4.961 9.692-7.42 21.836-7.42 36.359 0 14.819 2.82 27.864 8.48 39.222 5.668 11.293 13.153 20.833 22.434 28.528 9.295 7.694 20.062 13.665 32.263 17.848 12.209 4.219 24.821 6.764 37.917 7.666v33.525h25.694v-33.525c13.045-1.5 25.319-4.298 36.806-8.517 11.488-4.233 21.591-10.045 30.28-17.451 8.711-7.406 15.8-16.615 21.345-27.634 5.531-11.033 8.711-24.114 9.584-39.229h-61.837c-0.31 11.617-3.945 21.482-10.903 29.638-6.981 8.127-15.374 12.209-25.268 12.209v-77.096c3.469-0.923 7.031-1.767 10.673-2.647 3.642-0.844 7.478-1.875 11.56-3.022 21.49-5.812 38.032-13.024 49.657-21.591 11.617-8.567 20.192-17.502 25.694-26.783 5.545-9.31 8.805-18.583 9.836-27.872 0.981-9.339 1.536-17.603 1.536-24.872 0-6.353-1.601-14.408-4.832-24.165zM257.493 480.014c-142.192 0-257.493-115.301-257.493-257.514 0-142.192 115.301-257.471 257.493-257.471 142.228 0 257.507 115.279 257.507 257.471 0 142.213-115.279 257.514-257.507 257.514z" />
<glyph unicode="&#xe06b;" d="M194.071 84.892c7.353 2.423 13.921 5.902 19.781 10.486 5.817 4.495 10.618 10.047 14.408 16.654 3.748 6.567 5.638 14.365 5.638 23.443 0 14.716-4.627 25.687-13.837 33.045-9.251 7.358-24.937 14.009-47.143 20.003v-108.389c6.785 0.707 13.832 2.336 21.15 4.759zM120.953 367.585c-6.018-1.893-11.502-4.782-16.395-8.725-4.888-3.967-8.744-8.878-11.588-14.716-2.819-5.838-4.205-12.689-4.205-20.599 0-12.404 3.943-22.008 11.857-28.814 7.907-6.764 20.881-12.228 38.989-16.371v92.065c-6.434 0-12.644-0.971-18.656-2.842zM96.076 103.839c11.678-12.426 26.196-20.314 43.533-23.706v117.993c-1.892 0.75-4.452 1.631-7.645 2.558-3.194 0.968-6.699 1.805-10.465 2.554-13.924 3.745-27.669 8.195-41.237 13.264-13.528 5.11-25.692 11.852-36.418 20.356-10.726 8.459-19.297 18.991-25.689 31.636-6.408 12.579-9.602 28.308-9.602 47.144 0 19.21 3.655 36.13 10.989 50.846 7.358 14.652 17.052 27.010 29.107 36.99 12.050 9.981 25.993 17.714 41.812 23.132 15.819 5.465 32.192 8.767 49.149 9.936v43.465h33.312v-43.465c16.92-1.94 32.828-5.574 47.719-11.039 14.893-5.484 27.978-13.017 39.258-22.626 11.278-9.604 20.486-21.544 27.669-35.842s11.28-31.259 12.428-50.846h-80.192c-0.394 15.069-5.11 27.846-14.144 38.421-9.032 10.531-19.915 15.819-32.734 15.819v-99.951c4.492-1.191 9.119-2.293 13.832-3.437 4.716-1.101 9.696-2.423 14.982-3.922 27.848-7.535 49.307-16.873 64.372-27.978 15.069-11.103 26.173-22.689 33.311-34.719 7.182-12.072 11.414-24.101 12.736-36.128 1.275-12.117 1.98-22.824 1.98-32.253 0-8.24-2.069-18.683-6.257-31.327-4.141-12.602-11.544-24.892-22.291-37.012-10.709-12.027-25.117-22.734-43.179-32.163-18.113-9.429-41.243-15.069-69.487-16.964v-47.98h-33.312v47.98c-42.193 3.036-75.147 15.992-98.875 38.99-23.706 22.958-37.45 56.665-41.219 101.117h79.619c-0.354-21.456 5.264-38.419 16.938-50.843z" horiz-adv-x="313" />
<glyph unicode="&#xe06c;" d="M193.543 55.828c-16.241 1.348-32.449 9.753-37.743 19.694-5.286 9.94 2.969 18.101 20.122 17.37 17.164-0.733 36.059-10.673 40.443-21.2 4.372-10.542-6.57-17.198-22.822-15.863zM157.469 29.294c-13.674 1.605-28.019 9.036-33.26 17.225-5.251 8.176 1.024 14.386 15.318 13.166 14.3-1.219 30.703-9.78 35.328-18.358 4.617-8.591-3.71-13.655-17.387-12.034zM131.201 7.019c-11.8 1.75-24.664 8.348-29.707 15.262-5.041 6.913-0.063 11.716 12.157 10.225 12.22-1.506 26.736-8.978 31.347-16.15 4.617-7.17-1.992-11.085-13.798-9.336zM292.858 29.623c-4.847 16.781-10.078 34.897-15.727 54.46-7.302 25.259-49.993 47.921-90.645 47.921h-161.785c-25.302 0.001-31.677-16.293-16.753-34.924 11.834-14.759 23.015-28.716 33.577-41.895 10.006-12.495 19.508-24.355 28.538-35.616 10.119-12.638 34.812-25.259 56.406-28.901 19.183-3.229 39.219-6.6 60.256-10.127 22.017-3.701 45.189-7.601 69.55-11.707 30.465-5.119 53.593 1.922 49.247 16.941-3.945 13.654-8.147 28.228-12.665 43.849zM64.462 203.35c4.468 12.521 19.449 22.719 34.050 23.235 14.609 0.532 23.624-9.064 19.537-21.917-4.072-12.836-20.009-23.838-34.997-24.039-14.982-0.202-23.057 10.184-18.588 22.721zM84.723 260.766c4.096 11.503 18.453 21.2 32.581 22.074 14.122 0.875 22.964-7.587 19.235-19.349-3.729-11.776-18.955-22.19-33.449-22.806-14.486-0.617-22.452 8.578-18.366 20.081zM103.284 313.219c3.785 10.607 17.547 19.859 31.223 21.028 13.678 1.16 22.333-6.347 18.889-17.163-3.443-10.808-17.994-20.677-32.001-21.638-14.007-0.947-21.895 7.172-18.115 17.771zM171.986 205.673c3.661 13.183 19.242 23.897 35.43 24.468 16.196 0.562 27.218-9.479 24.033-23.007-3.186-13.525-19.788-25.086-36.447-25.316-16.662-0.229-26.671 10.67-23.015 23.853zM188.591 265.872c3.34 12.034 18.256 22.234 33.814 23.194 15.553 0.947 26.246-7.903 23.356-20.225-2.889-12.321-18.702-23.251-34.724-23.923-16.022-0.676-25.797 8.935-22.446 20.954zM203.692 320.692c3.099 11.059 17.384 20.712 32.387 21.99 15.005 1.277 25.431-6.484 22.755-17.779-2.673-11.295-17.777-21.652-33.211-22.678-15.422-1.040-25.022 7.409-21.932 18.467zM49.070 152.072h164.476c35.637 0 70.375 24.342 75.919 53.042 4.506 23.366 8.868 45.956 13.084 67.787 4.080 21.128 8.025 41.581 11.855 61.403 4.375 22.663-18.051 38.162-48.877 35.193-25.444-2.446-50.295-4.834-74.593-7.172-23.752-2.28-47.030-4.519-69.792-6.712-26.339-2.531-53.733-20.892-61.771-41.446-7.001-17.887-14.208-36.274-21.609-55.194-7.617-19.492-15.484-39.559-23.566-60.242-9.905-25.315 5.269-46.66 34.875-46.66zM699.485 318.105c-6.885 2.121-18.617 11.202-25.904 20.195-7.288 9-7.112 14.207 0.057 11.74s18.446-11.424 25.418-20.052c6.968-8.635 7.299-14.005 0.429-11.883zM646.456 334.629c-8.061 2.496-21.356 12.522-29.303 22.284-7.932 9.758-7.198 15.217 1.206 12.334 8.405-2.89 21.085-12.729 28.673-22.094 7.602-9.367 7.5-15.018-0.575-12.522zM618.532 417.986c7.816-3.212 19.663-12.867 26.736-21.616 7.071-8.741 6.955-13.569-0.562-10.706-7.501 2.861-19.822 12.628-27.194 21.737-7.373 9.099-6.785 13.804 1.020 10.586zM586.789 407.916c-8.823 3.357-22.821 14.207-30.868 24.083-8.047 9.882-6.799 14.745 2.367 10.973 9.166-3.774 22.549-14.453 30.25-23.919 7.687-9.459 7.055-14.493-1.749-11.138zM724.758 315.953c-11.045 13.683-22.146 27.404-33.279 41.172-11.1 13.729-22.232 27.51-33.362 41.301-13.223 16.369-35.712 34.806-50.501 41.239-12.967 5.652-26.48 11.526-40.391 17.578-14.487 6.29-29.519 12.838-45.182 19.643-19.307 8.393-22.561-0.71-6.439-20.547 13.608-16.76 27.194-33.462 40.732-50.145 13.543-16.659 27.038-33.304 40.508-49.908 15.92-19.615 42.585-39.457 58.637-43.904 12.952-3.601 25.457-7.095 37.507-10.436 11.545-3.198 22.749-6.31 33.521-9.295 12.292-3.414 11.358 7.085-1.749 23.3zM609.868 220.864c-9.423-9.969-23.466-16.223-32.775-14.486-9.325 1.749-10.357 11.475-0.862 22.359 9.495 10.902 25.961 18.117 35.2 15.464 9.236-2.654 7.846-13.339-1.563-23.338zM609.222 154.225c-7.359-6.842-18.459-11.847-25.647-11.533-7.201 0.316-7.746 6.124-0.342 13.369 7.415 7.257 19.952 12.864 27.094 12.133s6.254-7.144-1.105-13.97zM578.944 187.357c8.318 8.778 22.575 15.061 30.651 13.583 8.077-1.464 7.016-9.595-1.219-17.744-8.247-8.147-20.671-13.683-28.817-12.837-8.131 0.847-8.92 8.233-0.615 16.996zM714.775 257.711c-11.047 4.576-22.852 9.466-35.487 14.704-13.595 5.621-28.243 11.703-44.090 18.257-20.442 8.471-57.775-7.704-79.132-34.439-16.698-20.883-32.229-40.333-46.701-58.461-13.6-17.013-26.334-32.963-38.3-47.937-13.279-16.638-5.922-29.391 14.157-29.361 15.936 0.027 30.982 0.042 45.197 0.071 13.483 0.012 26.277 0.027 38.425 0.042 13.626 0.030 34.914 9.626 48.639 21.932 12.206 10.916 24.943 22.332 38.326 34.295 14 12.535 28.732 25.734 44.235 39.601 19.363 17.342 26.894 36.247 14.731 41.295zM445.033 213.464c-5.896 9.522-4.734 24.726 2.597 34.61 7.327 9.882 18.374 10.772 24.686 1.333 6.296-9.423 5.163-25.688-2.584-35.643-7.733-9.969-18.805-9.825-24.7-0.299zM417.909 256.965c-5.422 8.735-4.246 23.264 2.597 33.018 6.856 9.747 17.053 11.125 22.834 2.482 5.778-8.635 4.634-24.126-2.567-33.98-7.214-9.854-17.441-10.256-22.863-1.52zM393.153 296.726c-4.976 8.053-3.831 21.974 2.582 31.577 6.425 9.609 15.905 11.361 21.213 3.414 5.307-7.947 4.146-22.698-2.582-32.417-6.727-9.716-16.223-10.622-21.213-2.574zM382.696 153.106c-2.884-13.053-7.443-16.524-10.357-7.431-2.912 9.080-2.975 27.769 0.006 41.368 2.978 13.596 7.782 16.523 10.593 6.899 2.796-9.639 2.624-27.786-0.243-40.836zM443.553 399.539c7.043 10.544 17.629 13.319 23.655 5.631 6.021-7.696 4.889-23.071-2.541-33.757-7.415-10.686-18.030-12.564-23.666-4.72-5.651 7.847-4.491 22.311 2.553 32.846zM497.202 367.124c6.584-8.377 5.463-24.521-2.512-35.415-7.975-10.893-19.419-12.279-25.574-3.758-6.153 8.521-5.018 23.696 2.525 34.433 7.53 10.728 18.975 13.109 25.559 4.741zM530.264 325.283c7.228-9.2 6.111-26.19-2.481-37.278-8.605-11.072-21.043-11.919-27.783-2.596-6.756 9.323-5.606 25.208 2.509 36.16 8.134 10.945 20.528 12.918 27.756 3.714zM361.685 222.584c-3.077-14.156-8.227-17.299-11.641-6.641-3.42 10.67-3.735 31.713-0.524 46.5 3.206 14.803 8.642 17.241 11.94 5.939 3.293-11.301 3.309-31.641 0.224-45.797zM360.945 53.964c-2.839-12.867-7.563-17.17-10.699-9.211-3.133 7.961-3.399 25.576-0.451 39.017 2.946 13.425 7.903 17.139 10.929 8.648 3.032-8.491 3.067-25.588 0.219-38.455zM338.32 114.965c-3.062-13.998-8.377-18.087-12.049-8.747-3.663 9.336-4.217 29.116-1.048 43.717 3.177 14.603 8.778 17.975 12.343 8.033 3.551-9.941 3.806-29.003 0.753-43.003zM470.665 176.398c13.483 16.881 27.341 34.237 41.524 51.997 14.573 18.229 29.535 36.962 44.896 56.184 18.718 23.443 20.956 59.078 4.99 77.805-12.993 15.231-25.559 29.976-37.709 44.204-11.746 13.784-23.134 27.13-34.15 40.061-12.607 14.788-34.582 8.182-48.838-13.657-11.746-18.014-23.235-35.612-34.469-52.824-10.973-16.818-21.728-33.306-32.25-49.428-2.491-3.818-4.547-8.027-6.197-12.428-0.797 2.951-1.588 5.886-2.396 8.871-6.532 24.138-17.392 20.411-23.852-9.259-5.457-25.072-10.893-50.059-16.329-75.001-5.436-24.901-10.873-49.787-16.302-74.6-6.397-29.319-5.041-68.775 2.726-86.978 6.268-14.689 12.3-28.888 18.122-42.544 5.589-13.096 11.016-25.805 16.225-38.011 5.952-13.941 14.994-5.292 20.339 18.892 4.511 20.412 9.005 40.892 13.539 61.433 4.519 20.484 9.051 41.022 13.598 61.59 5.391 24.399 5.822 58.953 0.832 77.441-0.677 2.509-1.364 5.060-2.049 7.599 0.507-0.876 1.009-1.743 1.517-2.624 8.807-15.245 17.872-30.953 27.224-47.146 11.447-19.807 33.462-21.039 49.011-1.577z" horiz-adv-x="735" />
<glyph unicode="&#xe600;" d="M118.063 248.879c-5.422-1.256-6.516 0.861-2.537 4.655l61.23 58.368c3.98 3.887 11.59 8.053 17.012 9.239l45.010 10.426c5.423 1.303 6.517-0.838 2.467-4.562l-61.789-58.322c-4.072-3.817-11.752-7.959-17.129-9.169l-44.264-10.636zM116.643 229.655c-3.328 4.422-1.699 9.077 3.724 10.357l43.66 10.38c5.306 1.256 12.311-1.397 15.43-5.911l49.944-70.865c3.212-4.584 1.443-9.24-3.98-10.45l-41.216-9.216c-5.376-1.21-12.498 1.466-15.826 5.865l-51.736 69.841zM260.212 334.615c-2.933-2.769-2.118-4.305 1.815-3.445l66.165 14.499c4.050 0.931 9.798 3.91 12.753 6.703l27.346 25.414c3.048 2.863 2.281 4.352-1.722 3.491l-66.374-14.918c-4.050-0.978-9.774-3.98-12.824-6.703l-27.159-25.041zM247.459 342.109c1.327-3.864 4.957-4.771 7.982-2.002l26.741 24.576c3.026 2.793 4.329 8.216 2.816 12.032l-24.739 64.861c-1.466 3.863-5.073 4.701-8.099 1.885l-24.809-23.575c-2.956-2.863-4.328-8.332-2.956-12.195l23.064-65.583zM252.719 160c-4.538 6.353-2.374 8.89 4.678 5.656l88.623-40.075c7.005-3.212 16.361-11.008 20.829-17.269l29.416-41.961c4.491-6.307 2.374-8.89-4.632-5.608l-88.808 40.75c-7.075 3.188-16.43 11.055-20.875 17.315l-29.231 41.192zM228.375 152.925c4.049 6.586 10.984 6.772 15.453 0.488l28.718-40.378c4.562-6.33 4.724-16.733 0.488-23.25l-54.086-83.851c-4.213-6.539-11.287-6.586-15.546-0.279l-26.461 38.353c-4.399 6.33-4.725 16.896-0.651 23.552l52.084 85.365z" />
<glyph unicode="&#xe601;" d="M661.708 19.2h-329c-16.558-20.76-37.007-38.216-60.303-51.197h389.303c14.055 0 25.451 11.462 25.451 25.598 0 14.139-11.395 25.601-25.451 25.601zM356.305 147.199c0 98.969-79.76 179.199-178.152 179.199-68.601 0-128.048-39.058-157.815-96.221-12.967-23.867-20.331-51.218-20.331-80.288 0-0.444 0.064-0.874 0.067-1.318-0.006-0.459-0.072-0.909-0.072-1.373 0-98.969 79.76-179.199 178.152-179.199s178.152 80.23 178.152 179.199zM252.409 175.392l-7.692-18.315h-123.112c-0.159-2.241-0.26-4.526-0.26-6.882 0-2.348 0.106-4.632 0.274-6.882h117.384l-8.047-18.303h-105.778c0.68-2.048 1.43-4.058 2.293-5.999 4.079-9.209 9.659-17.355 16.731-24.435 3.81-3.801 7.718-6.896 11.715-9.264 4.006-2.382 8.145-4.211 12.422-5.486 4.278-1.289 8.67-2.146 13.178-2.567 4.505-0.435 9.172-0.646 13.994-0.646 5.203 0 10.533 0.606 15.973 1.817 5.44 1.197 10.98 3.262 16.619 6.172 5.633 2.921 11.428 6.764 17.375 11.551 5.947 4.776 12.065 10.738 18.361 17.894v-37.197c-18.58-16.013-41.703-24.026-69.382-24.026-30.085 0-54.572 9.327-73.461 27.986-13.21 13.371-21.992 28.106-26.402 44.197h-29.453l8.047 18.303h18.335c-0.156 2.273-0.263 4.56-0.263 6.882s0.104 4.609 0.26 6.882h-26.376l8.047 18.315h21.386c4.401 16.143 13.192 30.844 26.425 44.079 18.736 18.736 43.223 28.107 73.461 28.107 30.244 0 55.466-10.112 75.684-30.321l-10.611-24.729c-5.757 6.144-11.355 11.171-16.795 15.104-5.44 3.928-10.802 7.041-16.091 9.336-5.284 2.29-10.513 3.888-15.685 4.782-5.172 0.889-10.317 1.336-15.448 1.336-4.822 0-9.526-0.231-14.113-0.698s-9.034-1.341-13.348-2.625c-4.315-1.284-8.514-3.106-12.593-5.48-4.087-2.368-8.032-5.469-11.837-9.27-7.078-7.078-12.558-15.067-16.448-23.974-0.796-1.82-1.489-3.709-2.12-5.644h127.35zM661.708 403.199h-407.208c-14.055 0-25.451-11.462-25.451-25.598 0-14.141 11.395-25.603 25.451-25.603h407.205c14.055 0 25.451 11.462 25.451 25.603 0.003 14.136-11.393 25.598-25.447 25.598zM254.5 428.803h407.205c14.055 0 25.451 11.462 25.451 25.597 0 14.139-11.395 25.601-25.451 25.601h-407.205c-14.055 0-25.451-11.462-25.451-25.601s11.395-25.597 25.451-25.597zM661.708 95.998h-290.87c-4.661-18.171-11.661-35.349-20.786-51.2h311.656c14.055 0 25.451 11.462 25.451 25.601s-11.395 25.601-25.451 25.601zM661.708 172.8h-285.952c1.044-8.404 1.757-16.91 1.757-25.598 0-8.69-0.712-17.195-1.757-25.601h285.952c14.055 0 25.451 11.462 25.451 25.601 0 14.135-11.395 25.598-25.451 25.598zM661.708 326.401h-389.308c23.298-12.984 43.748-30.44 60.309-51.2h329c14.055 0 25.451 11.462 25.451 25.601s-11.395 25.601-25.451 25.601zM661.708 249.601h-311.656c9.128-15.849 16.128-33.030 20.786-51.2h290.868c14.055 0 25.451 11.459 25.451 25.598 0.003 14.142-11.393 25.603-25.447 25.603z" horiz-adv-x="687" />
<glyph unicode="&#xe602;" d="M24.765 4.683c0-20.263 16.425-36.683 36.686-36.683h173.261v256.527h-209.946v-219.844zM481.442 357.993h-57.094c16.409 21.94 20.466 52.020 7.917 78.448-12.569 26.462-39.627 43.559-68.933 43.559-11.359 0-22.354-2.485-32.676-7.391-24.812-11.784-60.070-61.83-80.022-92.528-19.948 30.698-55.21 80.741-80.017 92.528-10.322 4.906-21.317 7.391-32.672 7.391-29.308 0-56.367-17.097-68.938-43.562-12.547-26.423-8.49-56.504 7.919-78.446h-57.094c-10.95 0-19.829-8.877-19.829-19.832v-61.931c0-10.954 8.879-19.829 19.829-19.829h4.936v-0.023h209.946v79.559h31.849v-79.556l214.881 0.022c10.95 0 19.829 8.877 19.829 19.829v61.929c-0.002 10.955-8.879 19.832-19.829 19.832zM97.778 422.777c7.321 15.413 23.087 25.374 40.164 25.374 6.595 0 12.992-1.45 19.008-4.308 14.635-6.95 44.193-46.347 66.763-80.836-17.968-1.882-42.9-3.973-65.002-3.973-27.29 0-36.971 3.197-39.867 4.571-22.123 10.507-31.57 37.050-21.066 59.172zM344.318 443.843c6.022 2.858 12.416 4.308 19.013 4.308 17.075 0 32.841-9.961 40.159-25.373 10.505-22.123 1.055-48.666-21.065-59.173-2.898-1.376-12.578-4.571-39.863-4.571h-0.007c-22.102 0-47.035 2.091-65 3.973 22.572 34.487 52.132 73.882 66.763 80.836zM266.56-32h173.263c20.259 0 36.679 16.421 36.679 36.683v219.844h-209.942v-256.527z" horiz-adv-x="502" />
<glyph unicode="&#xe603;" d="M352 384h-192l-160-192v-128c0-17.673 14.327-32 32-32h448c17.674 0 32 14.327 32 32v128l-160 192zM384 192l-64-64h-128l-64 64h-86.345l133.333 160h162.024l133.333-160h-86.345z" />
<glyph unicode="&#xe604;" d="M352 384h-192l-160-192v-128c0-17.673 14.327-32 32-32h448c17.674 0 32 14.327 32 32v128l-160 192zM320 128h-128l-32 32h192l-32-32zM41.655 192l133.333 160h162.024l133.333-160h-428.69zM142.482 288h227.036l-26.667 32h-173.703zM89.149 224h333.703l-26.667 32h-280.37z" />
<glyph unicode="&#xe605;" d="M371.987 218.437q-2.647 6.619-9.928 6.619h-63.538v116.484q0 4.632-2.979 7.611t-7.611 2.979h-63.537q-4.633 0-7.611-2.979t-2.979-7.611v-116.484h-63.537q-4.632 0-7.611-2.979t-2.979-7.611q0-3.971 3.31-7.942l105.563-105.563q3.641-2.979 7.611-2.979t7.611 2.979l105.894 105.894q4.964 5.295 2.317 11.583zM256.165 45.036q-48.976 0-90.341 24.156t-65.522 65.522-24.157 90.341 24.157 90.341 65.522 65.522 90.341 24.157 90.341-24.157 65.522-65.522 24.156-90.341-24.156-90.341-65.522-65.522-90.341-24.156zM510.312 225.056q0 69.162-34.085 127.569t-92.493 92.493-127.57 34.085-127.57-34.085-92.493-92.493-34.085-127.569 34.085-127.57 92.493-92.493 127.57-34.085 127.57 34.085 92.493 92.493 34.085 127.57z" />
<glyph unicode="&#xe606;" d="M371.987 229.563q-2.647-6.618-9.928-6.618h-63.538v-116.484q0-4.632-2.979-7.611t-7.611-2.979h-63.537q-4.633 0-7.611 2.979t-2.979 7.611v116.484h-63.537q-4.632 0-7.611 2.979t-2.979 7.611q0 3.971 3.31 7.941l105.563 105.563q3.641 2.979 7.611 2.979t7.611-2.979l105.894-105.894q4.964-5.294 2.317-11.583zM256.165 402.964q-48.976 0-90.341-24.156t-65.522-65.522-24.157-90.341 24.157-90.341 65.522-65.522 90.341-24.156 90.341 24.156 65.522 65.522 24.156 90.341-24.156 90.341-65.522 65.522-90.341 24.157zM510.312 222.944q0-69.162-34.085-127.57t-92.493-92.493-127.57-34.085-127.57 34.085-92.493 92.493-34.085 127.57 34.085 127.57 92.493 92.493 127.57 34.085 127.57-34.085 92.493-92.493 34.085-127.57z" />
<glyph unicode="&#xe607;" d="M0 224q0 59.714 29.428 110.143t79.857 79.857 110.143 29.428 110.143-29.428 79.857-79.857 29.428-110.143-29.428-110.143-79.857-79.857-110.143-29.428-110.143 29.428-79.857 79.857-29.428 110.143zM64 224q0-42.286 20.857-78t56.571-56.572 78-20.857 78 20.857 56.572 56.572 20.857 78-20.857 78-56.572 56.572-78 20.857-78-20.857-56.572-56.572-20.857-78zM98.857 224q0 7.428 5.428 12.857l29.143 29.143q5.428 5.428 12.857 5.428t12.857-5.428l42-42 78.572 78.572q5.428 5.428 12.857 5.428t12.857-5.428l29.143-29.143q5.428-5.428 5.428-12.857t-5.428-12.857l-120.572-120.571q-5.428-5.428-12.857-5.428t-12.857 5.428l-84 84q-5.428 5.428-5.428 12.857z" />
<glyph unicode="&#xe608;" d="M371.976 296.472c-4.373 102.167-80.504 183.528-174.079 183.528-93.598 0-169.729-81.36-174.101-183.505-13.688-3.648-23.795-15.973-23.795-30.76v-79.514c0-17.643 14.281-31.947 31.968-31.947s31.991 14.281 31.991 31.947h0.022v6.152c15.116-70.375 51.742-161.49 133.916-161.49 82.129 0 118.778 91.050 133.916 161.424v-6.086c0-14.084 9.162-25.882 21.796-30.145-0.901-16.127-9.623-101.222-92.786-136.728-5.207 3.23-11.557 4.329-17.797 2.065l-36.583-13.579c-10.634-3.933-16.061-15.776-12.15-26.344 3.977-10.678 15.754-16.105 26.41-12.194l36.582 13.556c7.976 2.944 13.029 10.327 13.402 18.28 93.159 41.197 102.716 139.496 103.639 155.075 12.414 4.351 21.422 16.061 21.422 30.013v79.514c0 14.765-10.129 27.113-23.773 30.738zM197.897 419.337c-72.748 0-132.685-57.763-142.024-132.553-2.483 2.813-5.427 5.12-8.722 6.921 3.032 89.138 69.276 160.369 150.746 160.369 81.448 0 147.67-71.231 150.724-160.369-3.274-1.801-6.218-4.108-8.7-6.877-9.338 74.769-69.276 132.51-142.024 132.51z" horiz-adv-x="396" />
<glyph unicode="&#xe609;" d="M0 123.428v201.143q0 34 24.143 58.143t58.143 24.143h91.428q3.714 0 6.428-2.714t2.714-6.428q0-1.143 0.286-5.714t0.143-7.572-0.857-6.714-2.857-5.572-5.857-1.857h-91.428q-18.857 0-32.285-13.428t-13.428-32.285v-201.143q0-18.857 13.428-32.286t32.285-13.428h89.143t3.286-0.286 3.286-0.857 2.286-1.572 2-2.572 0.571-3.857q0-1.143 0.286-5.714t0.143-7.572-0.857-6.714-2.857-5.572-5.857-1.857h-91.428q-34 0-58.143 24.143t-24.143 58.143zM109.715 169.143v109.714q0 7.428 5.428 12.857t12.857 5.429h128v82.286q0 7.428 5.428 12.857t12.857 5.428 12.857-5.428l155.428-155.428q5.428-5.428 5.428-12.857t-5.428-12.857l-155.428-155.428q-5.428-5.428-12.857-5.428t-12.857 5.428-5.428 12.857v82.286h-128q-7.428 0-12.857 5.428t-5.428 12.857z" horiz-adv-x="476" />
<glyph unicode="&#xf0a8;" d="M427.1 202.4v43.2q0 8-6 14.8t-15.6 6.8h-167.2l62.4 62.4q6.4 6.4 6.4 15.2t-6.4 14.4l-29.6 31.2q-5.6 5.6-15.2 5.6t-15.2-5.6l-120-120.8-31.2-30.4q-5.6-5.6-5.6-15.2t5.6-15.2l31.2-30.4 120-120.8q5.6-5.6 15.2-5.6t15.2 5.6l29.6 31.2q6.4 5.6 6.4 14.4t-6.4 15.2l-62.4 62.4h167.2q9.6 0 15.6 6.8t6 14.8zM512.7 224q0-70.4-34.4-129.2t-93.2-92.8-128.4-34-128.8 34-93.6 92.8-34.4 129.2 34.4 129.2 93.6 92.8 128.8 34 128.4-34 93.2-92.8 34.4-129.2z" horiz-adv-x="511" />
<glyph unicode="&#xf0a9;" d="M91.5 187.6q6-6.8 15.6-6.8h167.2l-62.4-62.4q-6.4-6.4-6.4-15.2t6.4-14.4l29.6-31.2q5.6-5.6 15.2-5.6t15.2 5.6l120 120.8 31.2 30.4q5.6 5.6 5.6 15.2t-5.6 15.2l-31.2 30.4-120 120.8q-5.6 5.6-15.2 5.6t-15.2-5.6l-29.6-31.2q-6.4-5.6-6.4-14.4t6.4-15.2l62.4-62.4h-167.2q-9.6 0-15.6-6.8t-6-14.8v-43.2q0-8 6-14.8zM127.5 446q58.8 34 128.4 34t128.8-34 93.6-92.8 34.4-129.2-34.4-129.2-93.6-92.8-128.8-34-128.4 34-93.2 92.8-34.4 129.2 34.4 129.2 93.2 92.8z" horiz-adv-x="511" />
<glyph unicode="&#xf0aa;" d="M235.1 53.6h43.2q8 0 14.8 6t6.8 15.6v167.2l62.4-62.4q6.4-6.4 15.2-6.4t14.4 6.4l31.2 29.6q5.6 5.6 5.6 15.2t-5.6 15.2l-120.8 120-30.4 31.2q-5.6 5.6-15.2 5.6t-15.2-5.6l-30.4-31.2-120.8-120q-5.6-5.6-5.6-15.2t5.6-15.2l31.2-29.6q5.6-6.4 14.4-6.4t15.2 6.4l62.4 62.4v-167.2q0-9.6 6.8-15.6t14.8-6zM256.7-32q-70.4 0-129.2 34.4t-92.8 93.2-34 128.4 34 128.8 92.8 93.6 129.2 34.4 129.2-34.4 92.8-93.6 34-128.8-34-128.4-92.8-93.2-129.2-34.4z" horiz-adv-x="511" />
<glyph unicode="&#xf0ab;" d="M278.3 395.2h-43.2q-8 0-14.8-6t-6.8-15.6v-167.2l-62.4 62.4q-6.4 6.4-15.2 6.4t-14.4-6.4l-31.2-29.6q-5.6-5.6-5.6-15.2t5.6-15.2l120.8-120 30.4-31.2q5.6-5.6 15.2-5.6t15.2 5.6l30.4 31.2 120.8 120q5.6 5.6 5.6 15.2t-5.6 15.2l-31.2 29.6q-5.6 6.4-14.4 6.4t-15.2-6.4l-62.4-62.4v167.2q0 9.6-6.8 15.6t-14.8 6zM256.7 480.8q70.4 0 129.2-34.4t92.8-93.2 34-128.4-34-128.8-92.8-93.6-129.2-34.4-129.2 34.4-92.8 93.6-34 128.8 34 128.4 92.8 93.2 129.2 34.4z" horiz-adv-x="511" />
<glyph unicode="&#xf0d7;" d="M292.8 278.8q0-7.6-5.6-13.2l-128-128q-5.6-4.8-12.8-4.8t-12.8 4.8l-128 128q-5.6 5.6-5.6 13.2t5.6 12.8 12.8 5.2h256q7.2 0 12.8-5.2t5.6-12.8z" horiz-adv-x="292" />
<glyph unicode="&#xf0d8;" d="M292.8 132.4q0-7.6-5.6-12.8t-12.8-5.2h-256q-7.2 0-12.8 5.2t-5.6 12.8 5.6 13.2l128 128q5.6 5.6 12.8 5.6t12.8-5.6l128-128q5.6-5.6 5.6-13.2z" horiz-adv-x="292" />
<glyph unicode="&#xf0d9;" d="M182.2 352v-256q0-7.2-5.6-12.8t-13.2-5.6-12.4 5.6l-128 128q-5.6 5.6-5.6 12.8t5.6 12.8l128 128q4.8 5.6 12.4 5.6t13.2-5.6 5.6-12.8z" horiz-adv-x="182" />
<glyph unicode="&#xf0da;" d="M164.6 224q0-7.2-5.6-12.8l-128-128q-5.6-5.6-12.8-5.6t-12.8 5.6-5.6 12.8v256q0 7.2 5.6 12.8t12.8 5.6 12.8-5.6l128-128q5.6-5.6 5.6-12.8z" horiz-adv-x="182" />
</font>
</defs>
</svg>
